<svg id="Layer_1" data-name="Layer 1" xmlns="http://www.w3.org/2000/svg" viewBox="0 0 837.24 401.18"><defs><style>.cls-1{fill:#1461ae;}</style></defs><title>foundbird_map2</title><path class="cls-1" d="M377.21,464L360.79,719.1l179.33,9,8.15-257.76Zm30.12,44.39c-0.94,3.16-3.63,4.82-7.41,4.82s-6.42-1.7-7.41-4.82c-0.38-1.18-.52-2.46-0.52-11.66s0.19-10.48.57-11.66c1-3.12,3.59-4.82,7.36-4.82s6.47,1.65,7.41,4.82c0.38,1.18.52,2.46,0.52,11.66S407.71,507.24,407.33,508.42Z" transform="translate(-360.79 -464.02)"/><path class="cls-1" d="M399.92,485.47a1.73,1.73,0,0,0-1.79,1.23c-0.14.47-.19,1-0.19,10.06s0,9.58.19,10.06a1.73,1.73,0,0,0,1.79,1.23,1.69,1.69,0,0,0,1.79-1.23c0.14-.47.19-1,0.19-10.06s0-9.58-.19-10.06A1.73,1.73,0,0,0,399.92,485.47Z" transform="translate(-360.79 -464.02)"/><path class="cls-1" d="M1126,668.59c-2.3-1.72-8.65-9.86-8.65-9.86l-1.64-9.33S1121,637,1121,633.86s-10.1-22.73-10.1-22.73-17-30.94-17-36-8.84-12.63-8.84-12.63,3.79-18.94-19.57-22.73c-7.58-12-29-28.41-37.88-27.78s-23.36-12-23.36-12-48-.63-51.77-0.63-7.58,5.68-12.63,10.73-17.68-8.21-17.68-8.21l-13.39-8.14V702.48c75.23-2.14,152.38-10.47,220.39-29.73A15.94,15.94,0,0,0,1126,668.59ZM937.85,544c0.24,0.76.33,1.56,0.33,4.49a17.2,17.2,0,0,1-.42,5c-1,3-3.45,4.72-7.41,4.72s-6.37-1.75-7.37-4.77a12,12,0,0,1-.42-3.49,0.5,0.5,0,0,1,.47-0.57l4.72-.47a0.44,0.44,0,0,1,.57.47,9.76,9.76,0,0,0,.14,2.36A1.72,1.72,0,0,0,930.3,553a1.67,1.67,0,0,0,1.79-1.23c0.14-.38.19-0.85,0.19-3.35s0-3-.19-3.35c-0.28-.9-0.94-1.18-2.08-1.18h-0.71a0.45,0.45,0,0,1-.47-0.47V539a0.45,0.45,0,0,1,.47-0.47h0.76c1.09,0,1.75-.28,2-1.13,0.14-.33.19-0.76,0.19-3.12a8.21,8.21,0,0,0-.19-2.64,1.67,1.67,0,0,0-1.79-1.23,1.72,1.72,0,0,0-1.84,1.27,9.76,9.76,0,0,0-.14,2.36,0.44,0.44,0,0,1-.57.47l-4.72-.47a0.5,0.5,0,0,1-.47-0.57A11.94,11.94,0,0,1,923,530c1-3,3.49-4.77,7.37-4.77s6.42,1.7,7.41,4.72a14.79,14.79,0,0,1,.42,4.34,12.24,12.24,0,0,1-.33,3.73A5.18,5.18,0,0,1,935.4,541v0.09A4.87,4.87,0,0,1,937.85,544Z" transform="translate(-360.79 -464.02)"/><path class="cls-1" d="M1198,861.16c-5.05-8.21-12-22.1-18.94-27.15s-18.31-31.57-21.47-36-8.84-24.62-13.26-27.15,1.89-12.63,3.16-21.47a17.27,17.27,0,0,0-.82-6.12l-2.83-7c-12.79,7.69-64.94,34.2-71.53-40.44a778.2,778.2,0,0,1-96.21,13.78V864.86C1132.82,866,1199.81,864.1,1198,861.16Zm-193-113a0.45,0.45,0,0,1,.47.47V753a0.45,0.45,0,0,1-.47.47H990.34a0.45,0.45,0,0,1-.47-0.47v-4.2a1.71,1.71,0,0,1,.24-0.9l8.07-13.17a8.32,8.32,0,0,0,1.42-5.33,5.61,5.61,0,0,0-.19-2,1.72,1.72,0,0,0-1.84-1.27,1.7,1.7,0,0,0-1.79,1.27,8.19,8.19,0,0,0-.19,2.69,0.44,0.44,0,0,1-.57.47l-4.67-.43a0.5,0.5,0,0,1-.47-0.57,13,13,0,0,1,.43-3.87c1-3,3.45-4.77,7.41-4.77s6.33,1.7,7.37,4.77a12.26,12.26,0,0,1,.42,3.68,13.07,13.07,0,0,1-2.27,8l-6.7,10.76v0h8.5Z" transform="translate(-360.79 -464.02)"/><path class="cls-1" d="M1138,722.89c0-5.05-4.42-37.88-4.42-39.78a15.89,15.89,0,0,0-1.39-4.15s-16.6,7.33-52.15,15.26c0.53,11.79,5.89,70.09,60.48,35.41C1139.1,726.86,1138,724.49,1138,722.89ZM1114.93,729a0.45,0.45,0,0,1-.47.47h-5A0.45,0.45,0,0,1,1109,729V704.1h-0.09l-4,2.79c-0.24.19-.52,0.09-0.52-0.28v-5.1a0.81,0.81,0,0,1,.42-0.76l4.16-3.07a1.28,1.28,0,0,1,.8-0.28h4.67a0.45,0.45,0,0,1,.47.47V729Z" transform="translate(-360.79 -464.02)"/><path class="cls-1" d="M889.89,482.33l-12.15-.43,0,0.1-10.55-.07L559.76,470.69l-1.12,0-6.42,205.27,0.94,0.13s165.63,30.84,346.44,26.62V489.45ZM588.48,516.2c-1,3.07-3.49,4.77-7.41,4.77s-6.37-1.75-7.36-4.77a11.15,11.15,0,0,1-.42-3.16,0.5,0.5,0,0,1,.47-0.57l4.67-.47a0.44,0.44,0,0,1,.57.47,5.76,5.76,0,0,0,.19,2,1.95,1.95,0,0,0,3.63,0c0.14-.38.19-0.85,0.19-4.34s0-4-.19-4.34a1.76,1.76,0,0,0-1.84-1.27,1.82,1.82,0,0,0-1.89,1.32,0.56,0.56,0,0,1-.66.42h-4.2a0.42,0.42,0,0,1-.47-0.47V488.92a0.45,0.45,0,0,1,.47-0.47h14.16a0.45,0.45,0,0,1,.47.47v4.34a0.45,0.45,0,0,1-.47.47h-9.11a0.25,0.25,0,0,0-.28.28v6.7h0a5,5,0,0,1,3.54-1.23c3.07,0,5,1.27,5.81,4,0.38,1.09.52,2.22,0.52,6.75C588.9,514.13,588.76,515.31,588.48,516.2Z" transform="translate(-360.79 -464.02)"/><path class="cls-1" d="M572.56,723.94a1.7,1.7,0,0,0-1.79,1.27c-0.14.38-.19,0.85-0.19,3.4s0,3,.19,3.35a1.9,1.9,0,0,0,3.59,0c0.14-.38.19-0.8,0.19-3.35s0-3-.19-3.4A1.7,1.7,0,0,0,572.56,723.94Z" transform="translate(-360.79 -464.02)"/><path class="cls-1" d="M552.84,685.88l-0.93-.15L547,858c93.84,2,174.48,3.59,246.62,4.72V712C724.67,708.83,646,700.93,552.84,685.88ZM580,733.62c-1,3.07-3.54,4.82-7.46,4.82s-6.47-1.75-7.46-4.82a17,17,0,0,1-.42-5,19.91,19.91,0,0,1,1.65-9.11l5.43-13.12a0.67,0.67,0,0,1,.71-0.47h5a0.36,0.36,0,0,1,.33.57L572.66,719a0.18,0.18,0,0,1,.09.09,3.18,3.18,0,0,1,1.42-.24c3.12,0,4.82,1.65,5.76,4.48a16.33,16.33,0,0,1,.52,5.29A17,17,0,0,1,580,733.62Z" transform="translate(-360.79 -464.02)"/><path class="cls-1" d="M802.77,712.36V862.83q39.61,0.61,75,1h0.74L884.8,864h0l9.82,0.12h0l2.8,0h1q36.72,0.43,68.63.67V710.25C922.28,713.72,867.8,715.13,802.77,712.36Zm30.58,43.44a0.45,0.45,0,0,1-.47.47H831.5a0.25,0.25,0,0,0-.28.28v4a0.45,0.45,0,0,1-.47.47h-4.82a0.45,0.45,0,0,1-.47-0.47v-4a0.25,0.25,0,0,0-.28-0.28h-9a0.45,0.45,0,0,1-.47-0.47v-4.53a1.71,1.71,0,0,1,.09-0.52l6.42-21.43a0.44,0.44,0,0,1,.52-0.38h5a0.37,0.37,0,0,1,.38.52l-6.37,21.43V751h3.45a0.25,0.25,0,0,0,.28-0.28v-7.22a0.45,0.45,0,0,1,.47-0.47h4.82a0.45,0.45,0,0,1,.47.47v7.22c0,0.19,0,.28.24,0.28h1.42a0.45,0.45,0,0,1,.47.47v4.34Z" transform="translate(-360.79 -464.02)"/></svg>