<?xml version="1.0" encoding="utf-8"?>
<!-- Generator: Adobe Illustrator 19.1.0, SVG Export Plug-In . SVG Version: 6.00 Build 0)  -->
<svg version="1.1" id="Layer_1" xmlns="http://www.w3.org/2000/svg" xmlns:xlink="http://www.w3.org/1999/xlink" x="0px" y="0px"
	 viewBox="0 0 837.2 401.2" style="enable-background:new 0 0 837.2 401.2;" xml:space="preserve">
<style type="text/css">
	.st0{fill:#1461AE;}
</style>
<g>
	<g>
		<polygon class="st0" points="744.6,229.5 742.5,240.6 746.8,240.6 744.8,229.5 		"/>
		<path class="st0" d="M777.2,258.9c0-5.1-4.4-37.9-4.4-39.8c0-1.9-5.1-12.6-7.6-14.5c-2.3-1.7-8.6-9.9-8.6-9.9
			c-0.4,0.1-43.3,7.9-56,32.3c0.8,11.8,7.5,22.9,19.8,33.2c9.8,8.2,19.6,12.6,19.7,12.6l0.2,0.1c0,0,10.8,4.5,42.1-2.6
			C779.8,265.6,777.2,261.3,777.2,258.9z M754.5,251.8h-5.2c-0.3,0-0.5-0.2-0.5-0.5l-1-5.8h-6.1l-1.1,5.8c0,0.3-0.2,0.5-0.5,0.5
			h-5.2c-0.3,0-0.4-0.2-0.4-0.5l7-31.2c0.1-0.3,0.2-0.5,0.5-0.5h5.6c0.3,0,0.5,0.2,0.5,0.5l6.9,31.2
			C754.9,251.6,754.8,251.8,754.5,251.8z"/>
	</g>
	<g>
		<path class="st0" d="M628.8,157.3h1.4c2.4,0,3.2-0.8,3.2-4c0-3.1-0.8-4-3.2-4h-1.4c-0.2,0-0.3,0.1-0.3,0.3v7.4
			C628.5,157.2,628.6,157.3,628.8,157.3z"/>
		<path class="st0" d="M630.2,162.2h-1.4c-0.2,0-0.3,0.1-0.3,0.3v8.2c0,0.2,0.1,0.3,0.3,0.3h1.4c2.6,0,3.5-1,3.5-4.4
			C633.6,163.2,632.8,162.2,630.2,162.2z"/>
		<path class="st0" d="M754.9,185.4c0,0,5.2-12.4,5.2-15.5c0-3.2-10.1-22.7-10.1-22.7s-17-30.9-17-36c0-5.1-8.8-12.6-8.8-12.6
			s3.8-18.9-19.6-22.7c-7.6-12-29-28.4-37.9-27.8c-8.8,0.6-23.4-12-23.4-12s-48-0.6-51.8-0.6S584,41,579,46.1
			c-5.1,5.1-17.7-8.2-17.7-8.2l-32.2-19.6l-12.1-0.4c26.6,115.8,31.8,205.7,30.5,265.7c0.6,0,1.2,0,1.9,0.1
			c106.7,3.9,146.2-9.5,160.7-19.9c-12-11.4-18.5-24.2-19-37.5l0-1.2l0.5-1.1C705.7,194.4,752.9,185.7,754.9,185.4z M630.4,176.2
			h-7.6c-0.3,0-0.5-0.2-0.5-0.5v-31.2c0-0.3,0.2-0.5,0.5-0.5h8.1c5.9,0,8.6,2.7,8.6,8.4c0,3.9-1.3,5.9-3.7,6.9v0.1
			c2.4,0.7,4.1,3,4.1,7.3C639.9,173.9,636.7,176.2,630.4,176.2z"/>
	</g>
	<path class="st0" d="M837.2,397.1c-5.1-8.2-12-22.1-18.9-27.1c-6.9-5.1-18.3-31.6-21.5-36c-3.2-4.4-8.8-24.6-13.3-27.1
		c-4.4-2.5,1.9-12.6,3.2-21.5c0.4-2.5-0.8-6.1-0.8-6.1c-15.1,3.5-26.1,4.6-33.8,4.6c-10.3,0-14.9-1.9-16-2.4
		c-0.9-0.4-9.3-4.3-18.6-11.5c-19.8,15.7-65.1,23.8-132.4,23.8c-11.4,0-23.4-0.2-36.1-0.7c-0.6,0-1.2,0-1.8-0.1
		c-0.1,3.9-0.3,7.7-0.5,11.3c-2.7,54.4-10.4,86.3-12.9,95.7C746.9,402.6,839.3,400.5,837.2,397.1z M668.9,357.8c0.3,1,1,1.5,2.1,1.5
		c1.6,0,2.4-1,2.5-3.5c0-0.3,0.2-0.5,0.5-0.4l5,0.9c0.3,0,0.4,0.3,0.4,0.6c-0.3,5.4-3.3,8.1-8.5,8.1c-4.2,0-6.8-1.9-8-5.3
		c-0.4-1.4-0.6-2.8-0.6-11.1s0.2-9.8,0.6-11.1c1.1-3.4,3.7-5.3,8-5.3c5.1,0,8.2,2.7,8.5,8.1c0,0.3-0.1,0.5-0.4,0.6l-5,0.8
		c-0.3,0-0.5-0.1-0.5-0.4c-0.1-2.5-0.9-3.5-2.5-3.5c-1.1,0-1.8,0.5-2.1,1.5c-0.2,0.7-0.3,1.3-0.3,9.4S668.7,357.1,668.9,357.8z"/>
	<g>
		<path class="st0" d="M506.7,17.9L16.4,0L0,255.1l190.7,9.5L186.3,394c135.1,2.9,247,4.9,337.7,6
			C525.7,394.3,562.8,261.2,506.7,17.9z M346,206.7c-1.2,3.6-3.8,5.3-8.2,5.3h-8.1c-0.3,0-0.5-0.2-0.5-0.5v-31.2
			c0-0.3,0.2-0.5,0.5-0.5h8.1c4.4,0,7,1.7,8.2,5.3c0.6,1.8,0.8,4,0.8,10.7C346.8,202.7,346.6,204.9,346,206.7z"/>
		<path class="st0" d="M337.2,185.5h-1.5c-0.2,0-0.3,0.1-0.3,0.3v20.4c0,0.2,0.1,0.3,0.3,0.3h1.5c1.6,0,2.4-0.6,2.9-2
			c0.4-1,0.5-2.4,0.5-8.5c0-6.1-0.1-7.5-0.5-8.5C339.6,186.1,338.7,185.5,337.2,185.5z"/>
	</g>
</g>
</svg>
