<?xml version="1.0" encoding="iso-8859-1"?>
<!-- Generator: Adobe Illustrator 19.1.0, SVG Export Plug-In . SVG Version: 6.00 Build 0)  -->
<svg version="1.1" id="Layer_1" xmlns="http://www.w3.org/2000/svg" xmlns:xlink="http://www.w3.org/1999/xlink" x="0px" y="0px"
	 viewBox="0 0 47.586 47.586" style="enable-background:new 0 0 47.586 47.586;" xml:space="preserve">
<g>
	<path style="fill:none;stroke:#A34E24;stroke-width:2;stroke-linecap:round;stroke-miterlimit:10;" d="M23.879,27.017
		c0,0-1.472-0.933-4.156-0.933c-2.492,0-3.328-0.548-3.57-0.548c-0.403,0-0.666,0.272-0.473,0.657
		c0.193,0.385,5.926,8.134,7.726,9.934c0,0,0.184,0.184,0.473,0.184h0.058c0.214,0,0.366-0.077,0.473-0.184
		c1.578-1.578,7.494-9.58,7.726-9.934c0.184-0.28,0.131-0.683-0.473-0.657c-0.242,0-1.077,0.548-3.57,0.548
		C25.408,26.084,23.879,27.017,23.879,27.017z"/>
	
		<line style="fill:none;stroke:#A34E24;stroke-width:2;stroke-linecap:round;stroke-miterlimit:10;" x1="23.879" y1="25.544" x2="23.879" y2="11.232"/>
	
		<circle style="fill:none;stroke:#D3D3D3;stroke-width:2;stroke-linecap:round;stroke-miterlimit:10;" cx="23.793" cy="23.793" r="22.793"/>
</g>
<g>
</g>
<g>
</g>
<g>
</g>
<g>
</g>
<g>
</g>
<g>
</g>
</svg>
