<?xml version="1.0" encoding="iso-8859-1"?>
<!-- Generator: Adobe Illustrator 19.1.0, SVG Export Plug-In . SVG Version: 6.00 Build 0)  -->
<svg version="1.1" id="Layer_1" xmlns="http://www.w3.org/2000/svg" xmlns:xlink="http://www.w3.org/1999/xlink" x="0px" y="0px"
	 viewBox="0 0 31.14 48.013" style="enable-background:new 0 0 31.14 48.013;" xml:space="preserve">
<g>
	<path style="fill:#FFFFFF;" d="M26.858,23.881c0,0,2.696-4.253,2.696-12.011c0-7.202,1.582-9.617,1.582-10.316
		c0-1.164-0.785-1.924-1.899-1.367S5.734,17.312,0.532,22.514c0,0-0.532,0.532-0.532,1.367l0,0.168c0,0.617,0.223,1.058,0.532,1.367
		c4.561,4.561,27.684,21.656,28.706,22.327c0.81,0.532,1.975,0.38,1.899-1.367c0-0.698-1.582-3.114-1.582-10.316
		C29.554,28.301,26.858,23.881,26.858,23.881z"/>
</g>
<g>
</g>
<g>
</g>
<g>
</g>
<g>
</g>
<g>
</g>
<g>
</g>
</svg>
