<?xml version="1.0" encoding="iso-8859-1"?>
<!-- Generator: Adobe Illustrator 19.1.0, SVG Export Plug-In . SVG Version: 6.00 Build 0)  -->
<svg version="1.1" id="Layer_1" xmlns="http://www.w3.org/2000/svg" xmlns:xlink="http://www.w3.org/1999/xlink" x="0px" y="0px"
	 viewBox="0 0 82.028 104.24" style="enable-background:new 0 0 82.028 104.24;" xml:space="preserve">
<g>
	<line style="fill:none;stroke:#FFFFFF;stroke-width:3;stroke-miterlimit:10;" x1="36.552" y1="56.665" x2="36.552" y2="36.615"/>
	<line style="fill:none;stroke:#FFFFFF;stroke-width:3;stroke-miterlimit:10;" x1="45.191" y1="35.365" x2="45.191" y2="56.665"/>
	<path style="fill:#A34E24;stroke:#FFFFFF;stroke-width:3;stroke-miterlimit:10;" d="M40.807,58.532c0,0-7-4.437-19.77-4.437
		c-11.855,0-15.83-2.605-16.98-2.605c-1.917,0-3.167,1.292-2.25,3.125s28.187,38.687,36.75,47.25c0,0,0.875,0.875,2.25,0.875h0.276
		c1.016,0,1.742-0.367,2.25-0.875c7.508-7.508,35.646-45.567,36.75-47.25c0.875-1.333,0.625-3.25-2.25-3.125
		c-1.15,0-5.125,2.605-16.98,2.605C48.083,54.095,40.807,58.532,40.807,58.532z"/>
	<path style="fill:none;stroke:#FFFFFF;stroke-width:3;stroke-linecap:round;stroke-miterlimit:10;" d="M45.724,56.532
		c0,2.5,4.167,4.667,10.5,4.667c0,0,3.833,0.167,6.833-0.583"/>
	<path style="fill:none;stroke:#FFFFFF;stroke-width:3;stroke-linecap:round;stroke-miterlimit:10;" d="M36.057,56.532
		c0,2.5-4.167,4.667-10.5,4.667c0,0-3.833,0.167-6.833-0.583"/>
	<path style="fill:none;stroke:#FFFFFF;stroke-width:3;stroke-linecap:round;stroke-miterlimit:10;" d="M41.057,62.655
		c0,7.375,10.177,11.21,10.177,11.21"/>
	<path style="fill:none;stroke:#FFFFFF;stroke-width:3;stroke-linecap:round;stroke-miterlimit:10;" d="M30.879,73.865
		c0,0,10.177-3.835,10.177-11.21c0-0.953,0-2.719,0-4.79"/>
	
		<line style="fill:none;stroke:#FFFFFF;stroke-width:3;stroke-linecap:round;stroke-miterlimit:10;" x1="41.224" y1="67.532" x2="41.224" y2="83.699"/>
	<path style="fill:none;stroke:#FFFFFF;stroke-width:3;stroke-linecap:round;stroke-miterlimit:10;" d="M53.427,12.151
		c6.076,0.837,12.63,6.05,12.63,12.356c0,6.889-3.75,12.474-14.349,12.474c-2.521,0-4.868-0.748-6.83-2.034
		c-1.58-1.036-2.911-2.421-3.882-4.045"/>
	<path style="fill:none;stroke:#FFFFFF;stroke-width:3;stroke-linecap:round;stroke-miterlimit:10;" d="M28.854,12.017
		C29.793,6.058,34.952,1.5,41.175,1.5c6.889,0,12.474,5.585,12.474,12.474c0,1.483-0.259,2.906-0.734,4.226"/>
	<path style="fill:none;stroke:#FFFFFF;stroke-width:3;stroke-linecap:round;stroke-miterlimit:10;" d="M44.632,34.781
		c-2.01,1.387-5.826,2.584-8.951,2.584c-3.5,0-17.375-0.875-17.375-12.858c0-6.889,5.585-12.474,12.474-12.474"/>
</g>
<g>
</g>
<g>
</g>
<g>
</g>
<g>
</g>
<g>
</g>
<g>
</g>
</svg>
