<?xml version="1.0" encoding="iso-8859-1"?>
<!-- Generator: Adobe Illustrator 19.1.0, SVG Export Plug-In . SVG Version: 6.00 Build 0)  -->
<svg version="1.1" id="Layer_1" xmlns="http://www.w3.org/2000/svg" xmlns:xlink="http://www.w3.org/1999/xlink" x="0px" y="0px"
	 viewBox="0 0 60.112 60.112" style="enable-background:new 0 0 60.112 60.112;" xml:space="preserve">
<g>
	<rect x="0" y="0" style="fill:none;" width="60.112" height="60.112"/>
	<rect x="0" y="0" style="fill:#280F0F;" width="60.112" height="60.112"/>
	<g>
		<polygon style="fill:none;" points="60.112,0 57.026,0 0,57.026 0,60.112 3.774,60.112 60.112,3.773 		"/>
		<polygon style="fill:none;" points="60.112,60.112 60.112,56.114 56.114,60.112 		"/>
		<polygon style="fill:none;" points="20.688,60.112 60.112,20.688 60.112,13.828 13.828,60.112 		"/>
		<polygon style="fill:none;" points="46.06,60.112 60.112,46.06 60.112,39.199 39.199,60.112 		"/>
		<polygon style="fill:none;" points="37.602,60.112 60.112,37.602 60.112,30.742 30.742,60.112 		"/>
		<polygon style="fill:none;" points="0,0 0,4.686 4.686,0 		"/>
		<polygon style="fill:none;" points="48.568,0 0,48.569 0,55.429 55.429,0 		"/>
		<polygon style="fill:none;" points="31.654,0 0,31.654 0,38.515 38.514,0 		"/>
		<polygon style="fill:none;" points="23.197,0 0,23.197 0,30.057 30.057,0 		"/>
		<polygon style="fill:none;" points="40.111,0 0,40.112 0,46.972 46.971,0 		"/>
		<polygon style="fill:none;" points="6.283,0 0,6.283 0,13.143 13.143,0 		"/>
		<polygon style="fill:none;" points="14.74,0 0,14.74 0,21.6 21.6,0 		"/>
		<polygon style="fill:none;" points="12.231,60.112 60.112,12.231 60.112,5.37 5.371,60.112 		"/>
		<polygon style="fill:none;" points="54.517,60.112 60.112,54.517 60.112,47.656 47.657,60.112 		"/>
		<polygon style="fill:none;" points="29.145,60.112 60.112,29.145 60.112,22.285 22.285,60.112 		"/>
		<polygon style="fill:#351212;" points="4.686,0 0,4.686 0,6.283 6.283,0 		"/>
		<polygon style="fill:#351212;" points="13.143,0 0,13.143 0,14.74 14.74,0 		"/>
		<polygon style="fill:#351212;" points="21.6,0 0,21.6 0,23.197 23.197,0 		"/>
		<polygon style="fill:#351212;" points="30.057,0 0,30.057 0,31.654 31.654,0 		"/>
		<polygon style="fill:#351212;" points="38.514,0 0,38.515 0,40.112 40.111,0 		"/>
		<polygon style="fill:#351212;" points="46.971,0 0,46.972 0,48.569 48.568,0 		"/>
		<polygon style="fill:#351212;" points="55.429,0 0,55.429 0,57.026 57.026,0 		"/>
		<polygon style="fill:#351212;" points="60.112,5.37 60.112,3.773 3.774,60.112 5.371,60.112 		"/>
		<polygon style="fill:#351212;" points="13.828,60.112 60.112,13.828 60.112,12.231 12.231,60.112 		"/>
		<polygon style="fill:#351212;" points="22.285,60.112 60.112,22.285 60.112,20.688 20.688,60.112 		"/>
		<polygon style="fill:#351212;" points="30.742,60.112 60.112,30.742 60.112,29.145 29.145,60.112 		"/>
		<polygon style="fill:#351212;" points="39.199,60.112 60.112,39.199 60.112,37.602 37.602,60.112 		"/>
		<polygon style="fill:#351212;" points="47.657,60.112 60.112,47.656 60.112,46.06 46.06,60.112 		"/>
		<polygon style="fill:#351212;" points="56.114,60.112 60.112,56.114 60.112,54.517 54.517,60.112 		"/>
	</g>
</g>
<g>
</g>
<g>
</g>
<g>
</g>
<g>
</g>
<g>
</g>
<g>
</g>
</svg>
