<?xml version="1.0" encoding="iso-8859-1"?>
<!-- Generator: Adobe Illustrator 19.1.0, SVG Export Plug-In . SVG Version: 6.00 Build 0)  -->
<svg version="1.1" id="Layer_1" xmlns="http://www.w3.org/2000/svg" xmlns:xlink="http://www.w3.org/1999/xlink" x="0px" y="0px"
	 viewBox="0 0 670.806 520.008" style="enable-background:new 0 0 670.806 520.008;" xml:space="preserve">
<g>
	<path style="fill:none;stroke:#D3D3D3;stroke-width:3;stroke-linecap:round;stroke-linejoin:round;stroke-miterlimit:10;" d="
		M1.5,86.084c4.649,0.738,11.069-1.107,14.906-3.247c3.75-2.091,13.356-12.028,15.644-17.341"/>
	<path style="fill:none;stroke:#D3D3D3;stroke-width:3;stroke-linecap:round;stroke-linejoin:round;stroke-miterlimit:10;" d="
		M17.956,81.878c0,0,1.771,7.379,6.789,9.888"/>
	<path style="fill:none;stroke:#D3D3D3;stroke-width:3;stroke-linecap:round;stroke-linejoin:round;stroke-miterlimit:10;" d="
		M79.573,72.137c0.148,1.328,3.616,5.608,3.542,7.379s-6.715,6.494-6.715,6.494l-8.56,3.837l-2.509,5.682
		c0,0-1.623,3.025,1.402,4.944l5.313,4.28c1.55,7.453-0.886,9.076-2.066,10.036c-1.181,0.959-5.145,2.862-10.479,1.697
		c-6.42-1.402-11.733-8.781-11.733-8.781l-3.911-0.738c0,0-1.55-6.789-6.125-6.346c-4.575,0.443-21.105-3.616-17.489-6.346
		c3.616-2.73,12.25-3.321,12.25-3.321s5.461-0.59,8.781-2.288c3.321-1.697,9.003-1.697,9.003-1.697l0.369-4.87
		c0,0,2.952-4.28,9.667-5.534c6.715-1.254,10.552-6.051,10.552-6.051l6.346,0.664c0,0,7.379-1.476,10.183-3.025
		s6.125-0.074,6.125-0.074l1.476-2.804c0,0,2.657,1.55,4.206,1.033s5.977-5.756,11.069-5.903"/>
	<path style="fill:none;stroke:#D3D3D3;stroke-width:3;stroke-linecap:round;stroke-linejoin:round;stroke-miterlimit:10;" d="
		M69.684,115.01L56.992,99.514c0,0-2.214-2.583-2.214-4.059c0,0-1.476-5.977-4.501-8.486"/>
	<path style="fill:none;stroke:#D3D3D3;stroke-width:3;stroke-linecap:round;stroke-linejoin:round;stroke-miterlimit:10;" d="
		M22.9,77.45c0,0,4.206-0.664,8.117,0.664c4.095,1.391,12.397,4.354,18.891,3.837"/>
	<path style="fill:none;stroke:#D3D3D3;stroke-width:3;stroke-linecap:round;stroke-linejoin:round;stroke-miterlimit:10;" d="
		M38.618,80.475l0.295-13.947c0,0-0.738-2.14-1.697-2.435c-0.959-0.295-6.272,2.14-9.076-0.664
		c-2.804-2.804-3.394-12.766-3.394-12.766l-0.664-12.692c0,0-2.214-2.804-2.214-3.911s2.066-2.288,2.066-2.288
		s-1.697-7.232-1.328-9.519s3.763-6.494,4.944-7.158s3.247,2.435,3.542,3.69c0.295,1.254,0.148,4.797-0.59,7.305
		c0,0-0.955,6.822,1.476,11.143c0.664,1.181-1.181,8.339,0.074,12.323c0,0,0.804,2.583,4.059,2.583"/>
	<path style="fill:none;stroke:#D3D3D3;stroke-width:3;stroke-linecap:round;stroke-linejoin:round;stroke-miterlimit:10;" d="
		M38.655,76.675c-2.324-2.14-6.937-4.686-9.851-5.682"/>
	<path style="fill:none;stroke:#D3D3D3;stroke-width:3;stroke-linecap:round;stroke-linejoin:round;stroke-miterlimit:10;" d="
		M39.024,64.942l1.992-2.491c0,0,4.428,3.487,4.87,4.815c0.443,1.328,0.498,5.092,0.553,5.977c0.055,1.162,1.052,1.439,1.992,0.221
		l4.04-4.981c0,0,0.443-5.756,1.107-6.697c0.664-0.941,6.807-4.262,8.8-9.076c0,0,1.55-2.269,0.277-13.006
		c0,0-1.716-9.464-0.443-11.899c1.273-2.435,8.302-4.151,8.302-4.151s1.66,2.269,3.21,2.324c1.55,0.055,3.763,2.49,4.262,3.487
		c0.498,0.996,8.8-0.387,11.29-2.103c2.491-1.716,3.929-0.332,3.929-0.332s3.874,3.044,2.269,8.357S85.07,41.31,85.07,41.31"/>
	<path style="fill:none;stroke:#D3D3D3;stroke-width:3;stroke-linecap:round;stroke-linejoin:round;stroke-miterlimit:10;" d="
		M40.536,62.323c0,0-5.756-7.97-3.173-11.364c2.583-3.394,7.158,4.649,7.158,4.649s1.845,1.033,6.346-0.738
		c4.501-1.771,7.896-3.025,13.652-2.657c5.756,0.369,13.356,4.059,15.201,4.797c1.845,0.738,6.42,2.73,4.28-1.697
		s-3.911-5.682-2.657-10.036c1.254-4.354,3.911-3.837,3.911-3.837s3.025,4.132,5.682,4.944s7.158,0.443,8.708-1.181
		c0,0,0.221-3.542,1.845-3.985c1.623-0.443,6.199-1.919,6.715-3.099s4.059-7.822,4.059-7.822s11.585,0.221,14.316-3.099"/>
	<path style="fill:none;stroke:#D3D3D3;stroke-width:3;stroke-linecap:round;stroke-linejoin:round;stroke-miterlimit:10;" d="
		M76.399,86.01l10.22,9.704c0,0,3.099,3.21,8.191-0.664c5.092-3.874,7.638-2.989,7.638-2.989s2.657-0.664,0.886-7.305
		c-1.771-6.641,3.099-14.39,3.099-14.39l3.763-4.538c0,0-0.111-5.534,2.767-7.527c2.878-1.992,8.08-9.962,8.191-12.176
		s5.313-7.97,5.313-7.97s0.5-3.352,0.886-10.294c0.221-3.985,3.099-6.531,3.099-6.531l0.443-12.397l2.214-3.763"/>
	<path style="fill:none;stroke:#D3D3D3;stroke-width:3;stroke-linecap:round;stroke-linejoin:round;stroke-miterlimit:10;" d="
		M96.692,93.906c0,0,4.132,2.952,8.56,1.771c4.428-1.181,8.855-5.903,8.855-5.903s2.75-2.095,3.099,3.837
		c0.295,5.018,2.214,8.855,4.28,10.183c0,0,2.214,2.066,9.445,2.214c7.232,0.148,8.412,5.313,8.412,5.313s2.657,8.265,8.117,9.15
		c5.461,0.886,7.232,0.443,9.888,3.985c2.657,3.542,3.985,8.117,7.232,7.379c3.247-0.738,3.099-9.15,3.099-9.15l1.033-20.957
		c0,0-8.117-11.807-6.937-15.201s7.822-6.789,7.822-6.789l5.608-7.674c0,0-5.461-6.199-4.132-13.725s8.412-14.316,8.412-14.316
		s5.165,2.214,9.593,0.295c4.428-1.919,11.216-7.527,11.216-7.527s10.036,1.476,14.316-4.87s4.87,8.412,4.87,8.412
		s-0.616,7.943-8.265,8.708c-1.476,0.148-3.394,6.051-3.394,6.051s5.461-1.033,7.379-0.59c1.919,0.443,10.036,0.295,12.84-3.394
		c2.804-3.69,4.87-10.331,8.265-11.512c3.394-1.181,14.316-6.494,20.514-18.005s25.975-10.921,25.975-10.921l13.578-0.886
		c0,0,9.445,0.59,13.283-2.361c3.837-2.952,11.216,0,11.216,0l5.608-2.952c0,0,7.97,3.542,12.397,3.542s20.957-0.295,28.336-2.361
		c7.379-2.066,13.578-2.952,21.843-1.771s12.102-0.886,13.578-1.771s10.626-1.476,10.331,3.247s2.657,9.15,0.59,11.512
		s-8.265,18.005-2.657,23.023s7.97,20.662,6.789,27.746c-1.181,7.084-4.723,29.222-4.723,29.222l-4.428,30.107
		c0,0-1.181,12.692-0.885,14.168c0.295,1.476-3.542,13.873-0.295,23.614c3.247,9.741,14.759,25.385,14.759,25.385
		s5.903,12.102,5.903,13.873s9.741,15.054,9.741,15.054s10.036,29.517,10.331,33.059c0.295,3.542,4.132,6.789,4.132,6.789"/>
	<path style="fill:none;stroke:#D3D3D3;stroke-width:3;stroke-linecap:round;stroke-linejoin:round;stroke-miterlimit:10;" d="
		M234.98,40.332c0,0,4.575-1.181,5.461,1.919c0,0,1.623,6.199-0.148,14.759c-1.771,8.56-3.985,14.316-0.885,18.596
		s10.183,0.148,10.183,0.148l4.87-4.132c0,0,4.28-3.394,6.936-2.066c2.657,1.328,4.132,4.132,4.723,14.021
		c0.59,9.888-1.328,16.087-0.148,22.138c1.181,6.051-4.28,10.183-2.214,20.072s1.033,14.611,1.033,14.611s0.59,10.626,7.232,18.005
		s1.476,19.038,1.476,19.038s-2.804,4.723,2.214,14.611c5.018,9.888,3.247,21.4,3.247,21.4s4.28,5.756,7.822,6.789
		s12.471-1.107,12.471-1.107l15.496-23.023c0,0-1.009-5.248,5.453-7.842c0.305-0.123,0.627-0.239,0.967-0.349
		c4.213-1.363,0.885-19.038,0.885-19.038s0-8.412,3.985-8.412s2.878,6.641,7.084,8.634s19.481,5.313,24.794,9.519
		c5.313,4.206,13.061,5.313,13.725,10.183c0.664,4.87,5.534,7.748,2.657,11.954s-7.527,9.962-4.428,11.512
		c3.099,1.55,7.97-3.763,7.97-3.763s3.321-0.886,1.992,3.763c-1.328,4.649-1.328,20.809-0.221,23.245
		c1.107,2.435,1.328,17.71,2.214,20.367c0.886,2.657,11.733,15.939,8.855,26.123c-2.878,10.183-15.718,19.038-15.718,19.038
		s-14.611,1.55-15.275,7.305c-0.664,5.756,6.42,9.519,6.42,9.519s-0.221,22.138,4.428,33.207s2.657,15.054,2.657,15.054
		s-6.641,2.214-6.42,7.084s-9.298,15.054-9.298,15.054s-1.992,1.107,4.649,8.855c4.428,7.527,8.634,10.183,12.176,13.283
		c3.542,3.099,11.29,4.649,11.29,4.649"/>
	<path style="fill:none;stroke:#D3D3D3;stroke-width:3;stroke-linecap:round;stroke-linejoin:round;stroke-miterlimit:10;" d="
		M127.353,27.861c0,0,0.922,5.682,6.678,6.568c5.756,0.886,6.937,2.214,6.937,2.214s3.837,1.919,0.148,9.003
		c-3.69,7.084-6.641,10.331-5.018,14.759c1.623,4.428,7.97,0.59,7.97,0.59l3.542-6.789c0,0,3.837-2.361,3.69,1.771
		s-1.623,17.12,0.886,21.252c2.509,4.132,9.15,9.741,9.15,9.741"/>
	<path style="fill:none;stroke:#D3D3D3;stroke-width:3;stroke-linecap:round;stroke-linejoin:round;stroke-miterlimit:10;" d="
		M237.193,39.004c0,0,14.168-3.837,23.023-0.886c8.855,2.952,16.677,5.756,21.695,3.69c5.018-2.066,2.804,2.214,6.051,3.099
		c3.247,0.886,16.972,3.394,16.972,3.394s18.891,4.575,21.4,5.608c2.509,1.033,22.728,6.346,25.827,6.051
		c3.099-0.295,9.298,0.148,10.479,2.066c1.181,1.919,4.723,7.527,7.674,6.346s6.051,1.771,6.789,2.214
		c0.738,0.443,4.723,0.886,9.003-3.099c4.28-3.985,10.774,2.952,19.038,2.952s12.25-1.033,12.25-1.033"/>
	<path style="fill:none;stroke:#D3D3D3;stroke-width:3;stroke-linecap:round;stroke-linejoin:round;stroke-miterlimit:10;" d="
		M277.779,42.915c0,0,3.985,10.11,15.349,17.784s10.183,10.183,10.183,10.183s0.998,2.794,16.53,7.453c0,0,3.321,1.992,3.763,3.099
		c0.443,1.107,2.657,1.328,3.321-1.55c0.664-2.878,5.756-4.428,5.756-4.428l3.763-3.763c0,0,4.87-1.771,5.313,1.107
		c0.443,2.878-0.886,12.619,13.725,21.916s27.008,11.29,27.008,11.29s6.863,2.657,7.084,6.863c0.221,4.206,2.214,5.534,2.214,5.534
		s2.878,23.023,15.275,25.458c0,0,6.863,1.328,19.703,0c12.84-1.328,9.077,10.626,9.077,10.626s2.214,3.985,11.954,3.763
		c9.741-0.221,12.619,7.97,12.619,7.97s-0.443,11.29,1.55,13.504s2.214,9.519,1.107,14.39c-1.107,4.87-1.992,17.267-1.107,19.26
		s0.664,7.084,15.275,12.397s27.229,11.733,29,11.954c1.771,0.221,12.049,1.898,24.13-0.664c7.305-1.55,14.242-1.033,14.242-1.033"
		/>
	<path style="fill:none;stroke:#D3D3D3;stroke-width:3;stroke-linecap:round;stroke-linejoin:round;stroke-miterlimit:10;" d="
		M372.972,193.452c0,0,33.428,1.328,42.947,0.886c9.519-0.443,38.077-2.435,47.153-0.221"/>
	<path style="fill:none;stroke:#D3D3D3;stroke-width:3;stroke-linecap:round;stroke-linejoin:round;stroke-miterlimit:10;" d="
		M304.492,71.62c0,0-9.741,4.132-10.183,10.626c-0.443,6.494,0.295,9.445-0.295,10.626c-0.59,1.181-7.232,2.509-7.379,14.759
		s-3.837,21.105-3.837,21.547s-0.885,13.578,5.313,24.056c6.199,10.479,3.099,20.219,3.099,20.219s-4.428,9.445-2.952,15.054
		c1.476,5.608,1.476,11.659,1.476,11.659s3.837,5.018,4.428,5.461c0.59,0.443,2.509,10.921,1.181,13.578"/>
	<path style="fill:none;stroke:#D3D3D3;stroke-width:3;stroke-linecap:round;stroke-linejoin:round;stroke-miterlimit:10;" d="
		M286.782,220.239c0,0-2.361,3.985-0.885,9.593c1.476,5.608,6.346,11.069,6.641,18.596c0.295,7.527-2.361,9.15,2.361,9.888
		c4.723,0.738,9.298,0.886,9.298,3.247s-0.738,4.87-7.674,7.527c-6.937,2.657-11.069-0.295-12.692,3.837
		c-1.623,4.132,0.295,15.349-5.756,17.858c-6.051,2.509-11.069,0-11.069,0l-24.056-31.436c0,0-11.807-20.957-18.891-19.038
		c-7.084,1.919-7.379,8.56-7.379,8.56s-0.295,5.165-3.247,6.346c-2.952,1.181-1.919,7.379-1.919,7.379s-1.623,6.051-6.051,7.527"/>
	<path style="fill:none;stroke:#D3D3D3;stroke-width:3;stroke-linecap:round;stroke-linejoin:round;stroke-miterlimit:10;" d="
		M265.53,289.308c0,0-0.148,5.903-3.69,7.084c-3.542,1.181-2.952,4.87-6.199,3.542c-3.247-1.328-6.199,1.919-8.412-0.148
		s-8.412-7.674-13.578-16.972"/>
	<path style="fill:none;stroke:#D3D3D3;stroke-width:3;stroke-linecap:round;stroke-linejoin:round;stroke-miterlimit:10;" d="
		M404.998,471.281c-1.476,0.295-5.165-0.295-8.117-2.804c-2.952-2.509-6.199-3.69-6.641-3.985c-0.443-0.295-4.575-1.328-4.87-7.674
		s1.623-16.825,0.295-22.728c-1.328-5.903-1.919-15.644,2.657-21.843c4.575-6.199,6.346-10.626,6.641-13.43
		c0.295-2.804,5.018-13.873,4.87-15.054s2.657-23.318,2.361-26.565c-0.295-3.247,1.476-4.87,2.361-5.903
		c0.885-1.033,1.476-2.952,2.361-8.56c0.886-5.608,14.759-18.301,14.759-18.301s1.328-6.051,4.428-10.331
		c3.005-4.149,10.183-13.135,27.303-20.809c11.779-5.28,18.301-16.53,18.301-16.53s9.863-15.124,34.24-23.614
		c29.665-10.331,47.227-21.99,47.227-21.99l26.418-19.334c0,0,3.099-5.313,5.018-7.379c1.919-2.066,14.463,2.509,23.171,1.476
		s20.957-8.855,20.957-8.855s3.985,0.443,7.232,0.295s9.298-4.87,19.186-1.919c9.888,2.952-4.132,18.891-4.132,18.891
		l-15.644,18.596c0,0-14.463,11.216-13.43,21.547c1.033,10.331,9.298,31.731,9.298,31.731s2.509,5.018,0,17.12
		c-2.509,12.102,0.59,13.578,0.59,13.578s12.102,2.657,13.43,7.379c1.328,4.723,1.328,11.807,1.328,11.807"/>
	<path style="fill:none;stroke:#D3D3D3;stroke-width:3;stroke-linecap:round;stroke-linejoin:round;stroke-miterlimit:10;" d="
		M455.767,292.408c0,0,1.476-5.313-0.59-9.15s-0.443-11.364-0.443-11.364s-3.985-10.036-1.771-15.054
		c2.214-5.018,1.476-13.873,1.919-20.662c0.443-6.789-1.181-18.522,6.936-21.99"/>
	<path style="fill:none;stroke:#D3D3D3;stroke-width:3;stroke-linecap:round;stroke-linejoin:round;stroke-miterlimit:10;" d="
		M441.525,299.935c0,0-2.288,3.173-2.214,9.593c0,0,0.956,10.988-5.903,20.736c-1.402,1.992,2.288,25.606,1.771,28.115
		c-0.517,2.509-17.489,12.619-17.784,19.407s8.191,14.39,9.298,18.965c1.107,4.575,4.649,8.117,0.959,12.102
		s-4.428,4.28-6.641,8.412c0,0-9.076-0.443-14.832,10.036s-5.608,19.776-5.608,19.776s6.199,24.499,6.199,28.632
		s-0.59,14.611,3.69,18.891s12.987,10.036,14.316,13.578c1.328,3.542,3.099,10.036,7.379,9.888s4.132-3.542,7.527-1.919
		c3.394,1.623,6.789,2.066,9.445,0.148s2.509,2.214,3.985,2.214c1.476,0,4.744-2.382,5.756-8.117c0.443-2.509,4.87-1.181,4.87-1.181
		s1.771-3.837,3.247-2.804c1.476,1.033,0.886,5.756,3.099,5.903s4.132,0.738,4.575-5.165c0.443-5.903,0.885-7.527,4.87-8.412
		c3.985-0.886,18.715,5.051,20.957-9.15c0.443-2.804-8.708-8.855-3.69-13.578c5.018-4.723,17.563-12.25,17.563-12.25
		s3.099,1.919,4.28,0.59c1.181-1.328,1.328-1.623,3.985-1.476c2.656,0.148,5.313-0.738,4.87-3.542
		c-0.443-2.804-3.837-6.199-0.295-9.888c3.542-3.69,9.445-1.771,9.445-1.771s3.704,5.139,7.527,6.346
		c2.804,0.885,6.641,0,8.708-3.247c0,0,14.021-30.107,14.758-32.026s3.837-5.018,5.165-6.199c1.328-1.181,10.036-8.265,9.741-10.183
		s3.247-5.018,3.542-5.608c0.295-0.59,5.903-8.708,6.494-10.626s10.921-4.87,14.463-8.855c3.542-3.985,4.575-16.382,7.97-18.743
		s25.68-19.776,36.011-24.204c10.331-4.428,16.382-11.364,16.382-11.364s4.28-6.494,0-10.921c-4.28-4.428-12.84-8.855-14.168-15.201
		s6.346-17.858,6.346-17.858s1.476-11.807,0.443-16.234c-1.033-4.428,5.313-23.023,5.313-23.023s6.199-10.774,2.804-16.382
		c-3.394-5.608-13.725-12.987-13.725-12.987"/>
	<path style="fill:none;stroke:#D3D3D3;stroke-width:3;stroke-linecap:round;stroke-linejoin:round;stroke-miterlimit:10;" d="
		M387.287,462.573c0,0-5.165-3.542-11.659-4.575"/>
	<path style="fill:none;stroke:#D3D3D3;stroke-width:3;stroke-linecap:round;stroke-linejoin:round;stroke-miterlimit:10;" d="
		M473.625,511.719c0,0,4.87,2.509,7.822-1.476"/>
	<path style="fill:none;stroke:#D3D3D3;stroke-width:3;stroke-linecap:round;stroke-linejoin:round;stroke-miterlimit:10;" d="
		M494.729,498.732c0,0,2.361-5.461-0.59-10.183s-6.936,0.443-6.936,0.443s-8.117,5.903-15.644,2.509
		c-7.527-3.394-1.771-7.674-1.771-7.674s2.214-4.132,5.165-4.723c2.952-0.59,7.674-6.199,7.084-11.364
		c-0.59-5.165-1.328-7.527,0.148-9.298c1.476-1.771-1.771-4.132-3.099-9.593c-1.328-5.461-1.181-7.822,0.443-9.445
		s2.214-5.903-5.461-1.771c-7.674,4.132,0.443,13.43,0.443,13.43s2.657,6.051-4.428,5.903c-7.084-0.148-11.069,5.461-14.316,3.247
		s-3.394-4.132-3.247-5.756c0.148-1.623-3.985-8.56-4.428-8.708c-0.443-0.148,0-4.87-1.476-9.741
		c-1.476-4.87-1.771-6.641-1.476-8.117c0.295-1.476-11.659-11.659-25.532-10.479"/>
</g>
<g>
</g>
<g>
</g>
<g>
</g>
<g>
</g>
<g>
</g>
<g>
</g>
</svg>
