<?xml version="1.0" encoding="utf-8"?>
<!-- Generator: Adobe Illustrator 18.1.1, SVG Export Plug-In . SVG Version: 6.00 Build 0)  -->
<svg version="1.1" id="Layer_1" xmlns="http://www.w3.org/2000/svg" xmlns:xlink="http://www.w3.org/1999/xlink" x="0px" y="0px"
	 viewBox="0 0 598 462" enable-background="new 0 0 598 462" xml:space="preserve">
<path id="road" fill="none" stroke="#D1D2D2" stroke-width="3" stroke-linecap="round" stroke-linejoin="round" stroke-miterlimit="10" d="
	M333,173.7c0,0,29.2,1.2,37.5,0.8c8.3-0.4,33.2-2.1,41.1-0.2"/>
<g id="great-marsh">
	<path fill="none" stroke="#D1D2D1" stroke-width="3" stroke-linecap="round" stroke-linejoin="round" stroke-miterlimit="10" d="
		M403.1,260.8c10.3-4.6,16-14.4,16-14.4s8.6-13.2,29.9-20.6c25.9-9,41.2-19.2,41.2-19.2l23.1-16.9c0,0,2.7-4.6,4.4-6.4
		c1.7-1.8,12.6,2.2,20.2,1.3c7.6-0.9,18.3-7.7,18.3-7.7s3.5,0.4,6.3,0.3s8.1-4.2,16.7-1.7c8.6,2.6-3.6,16.5-3.6,16.5l-13.7,16.2
		c0,0-12.6,9.8-11.7,18.8c0.9,9,8.1,27.7,8.1,27.7s2.2,4.4,0,14.9c-2.2,10.6,0.5,11.8,0.5,11.8s10.6,2.3,11.7,6.4
		c1.2,4.1,1.2,10.3,1.2,10.3"/>
	<path fill="none" stroke="#D1D2D1" stroke-width="3" stroke-linecap="round" stroke-linejoin="round" stroke-miterlimit="10" d="
		M441,420.3c4.4-4.1,15.3-10.7,15.3-10.7s2.7,1.7,3.7,0.5c1-1.2,1.2-1.4,3.5-1.3c2.3,0.1,4.6-0.6,4.2-3.1s-3.3-5.4-0.3-8.6
		c3.1-3.2,8.2-1.5,8.2-1.5s3.2,4.5,6.6,5.5c2.4,0.8,5.8,0,7.6-2.8c0,0,12.2-26.3,12.9-27.9s3.3-4.4,4.5-5.4s8.8-7.2,8.5-8.9
		s2.8-4.4,3.1-4.9s5.2-7.6,5.7-9.3c0.5-1.7,9.5-4.2,12.6-7.7c3.1-3.5,4-14.3,7-16.4s22.4-17.3,31.4-21.1c9-3.9,14.3-9.9,14.3-9.9
		s3.7-5.7,0-9.5c-3.7-3.9-11.2-7.7-12.4-13.3c-1.2-5.5,5.5-15.6,5.5-15.6s1.3-10.3,0.4-14.2c-0.9-3.9,4.6-20.1,4.6-20.1
		s5.4-9.4,2.4-14.3c-3-4.9-12-11.3-12-11.3"/>
</g>
<g id="southern-uplands">
	<path fill="none" stroke="#D1D2D1" stroke-width="3" stroke-linecap="round" stroke-linejoin="round" stroke-miterlimit="10" d="
		M392.8,266.6c0,0-2,2.8-1.9,8.4c0,0,0.8,9.6-5.2,18.1c-1.2,1.7,2,22.3,1.5,24.5s-15.3,11-15.5,16.9c-0.3,5.9,7.1,12.6,8.1,16.5
		c1,4,4.1,7.1,0.8,10.6c-3.2,3.5-3.9,3.7-5.8,7.3c0,0-7.9-0.4-12.9,8.8c-5,9.1-4.9,17.3-4.9,17.3s5.4,21.4,5.4,25
		c0,3.6-0.5,12.7,3.2,16.5c3.7,3.7,11.3,8.8,12.5,11.8c1.2,3.1,2.7,8.8,6.4,8.6c3.7-0.1,3.6-3.1,6.6-1.7c3,1.4,5.9,1.8,8.2,0.1
		c2.3-1.7,2.2,1.9,3.5,1.9s4.1-2.1,5-7.1c0.4-2.2,4.2-1,4.2-1s1.5-3.3,2.8-2.4s0.8,5,2.7,5.2s3.6,0.6,4-4.5c0.4-5.2,0.8-6.6,4.2-7.3
		c3.5-0.8,16.3,4.4,18.3-8c0.4-2.4-7.6-7.7-3.2-11.8"/>
	<g>
		<path fill="none" stroke="#D1D2D1" stroke-width="3" stroke-linecap="round" stroke-linejoin="round" stroke-miterlimit="10" d="
			M360.9,416.1c-1.3,0.3-4.5-0.3-7.1-2.4c-2.6-2.2-5.4-3.2-5.8-3.5s-4-1.2-4.2-6.7s1.4-14.7,0.3-19.8c-1.2-5.2-1.7-13.7,2.3-19.1
			c4-5.4,5.5-9.3,5.8-11.7s4.4-12.1,4.2-13.1s2.3-20.3,2.1-23.2s1.3-4.2,2.1-5.2s1.3-2.6,2.1-7.5c0.8-4.9,12.9-16,12.9-16
			s1.2-5.3,3.9-9c2.6-3.6,8.9-11.5,23.8-18.2"/>
		<path fill="none" stroke="#D1D2D1" stroke-width="3" stroke-linecap="round" stroke-linejoin="round" stroke-miterlimit="10" d="
			M345.4,408.5c0,0-4.5-3.1-10.2-4"/>
		<path fill="none" stroke="#D1D2D1" stroke-width="3" stroke-linecap="round" stroke-linejoin="round" stroke-miterlimit="10" d="
			M420.8,451.4c0,0,4.2,2.2,6.8-1.3"/>
		<path fill="none" stroke="#D1D2D1" stroke-width="3" stroke-linecap="round" stroke-linejoin="round" stroke-miterlimit="10" d="
			M439.2,440.1c0,0,2.1-4.8-0.5-8.9s-6.1,0.4-6.1,0.4s-7.1,5.2-13.7,2.2c-6.6-3-1.5-6.7-1.5-6.7s1.9-3.6,4.5-4.1
			c2.6-0.5,6.7-5.4,6.2-9.9c-0.5-4.5-1.2-6.6,0.1-8.1c1.3-1.5-1.5-3.6-2.7-8.4s-1-6.8,0.4-8.2s1.9-5.2-4.8-1.5
			c-6.7,3.6,0.4,11.7,0.4,11.7s2.3,5.3-3.9,5.2s-9.7,4.8-12.5,2.8c-2.8-1.9-3-3.6-2.8-5s-3.5-7.5-3.9-7.6s0-4.2-1.3-8.5
			c-1.3-4.2-1.5-5.8-1.3-7.1c0.3-1.3-10.2-10.2-22.3-9.1"/>
	</g>
	<path fill="none" stroke="#D1D2D1" stroke-width="3" stroke-linecap="round" stroke-linejoin="round" stroke-miterlimit="10" d="
		M334.1,180.1c-2.5,3.7-6.6,8.7-3.9,10c2.7,1.4,7-3.3,7-3.3s2.9-0.8,1.7,3.3c-1.2,4.1-1.2,18.2-0.2,20.3c1,2.1,1.2,15.5,1.9,17.8
		s10.2,13.9,7.7,22.8c-2.5,8.9-13.7,16.6-13.7,16.6s-12.7,1.4-13.3,6.4s5.6,8.3,5.6,8.3s-0.2,19.3,3.9,29c4.1,9.7,2.3,13.1,2.3,13.1
		s-5.8,1.9-5.6,6.2c0.2,4.2-8.1,13.1-8.1,13.1s-1.7,1,4.1,7.7c3.9,6.6,7.5,8.9,10.6,11.6c3.1,2.7,9.9,4.1,9.9,4.1"/>
</g>
<g id="northern-floodplains">
	<path fill="none" stroke="#D1D2D1" stroke-width="3" stroke-linecap="round" stroke-linejoin="round" stroke-miterlimit="10" d="
		M213.7,39.4c3-1,12.5-5.7,17.9-15.7c5.4-10,22.7-9.5,22.7-9.5l11.8-0.8c0,0,8.2,0.5,11.6-2.1c3.3-2.6,9.8,0,9.8,0l4.9-2.6
		c0,0,7,3.1,10.8,3.1c3.9,0,18.3-0.3,24.7-2.1c6.4-1.8,11.8-2.6,19.1-1.5s10.6-0.8,11.8-1.5s9.3-1.3,9,2.8s2.3,8,0.5,10
		s-7.2,15.7-2.3,20.1s7,18,5.9,24.2s-4.1,25.5-4.1,25.5l-3.9,26.3c0,0-1,11.1-0.8,12.4c0.3,1.3-3.1,12.1-0.3,20.6
		c2.8,8.5,12.9,22.2,12.9,22.2s5.2,10.6,5.2,12.1c0,1.5,8.5,13.1,8.5,13.1s8.8,25.8,9,28.8s3.6,5.9,3.6,5.9"/>
	<g>
		<path fill="none" stroke="#D1D2D1" stroke-width="3" stroke-linecap="round" stroke-linejoin="round" stroke-miterlimit="10" d="
			M214.5,38.9c0,0,12.4-3.3,20.1-0.8s14.6,5,18.9,3.2c4.4-1.8,2.4,1.9,5.3,2.7c2.8,0.8,14.8,3,14.8,3s16.5,4,18.7,4.9
			c2.2,0.9,19.8,5.5,22.5,5.3c2.7-0.3,8.1,0.1,9.1,1.8s4.1,6.6,6.7,5.5c2.6-1,5.3,1.5,5.9,1.9s4.1,0.8,7.9-2.7
			c3.7-3.5,9.4,2.6,16.6,2.6s10.7-0.9,10.7-0.9"/>
		<path fill="none" stroke="#D1D2D1" stroke-width="3" stroke-linecap="round" stroke-linejoin="round" stroke-miterlimit="10" d="
			M249.9,42.3c0,0,3.5,8.8,13.4,15.5c9.9,6.7,8.9,8.9,8.9,8.9s0.9,2.4,14.4,6.5c0,0,2.9,1.7,3.3,2.7c0.4,1,2.3,1.2,2.9-1.4
			c0.6-2.5,5-3.9,5-3.9l3.3-3.3c0,0,4.2-1.5,4.6,1c0.4,2.5-0.8,11,12,19.1s23.6,9.9,23.6,9.9s6,2.3,6.2,6c0.2,3.7,1.9,4.8,1.9,4.8
			s2.5,20.1,13.3,22.2c0,0,6,1.2,17.2,0c11.2-1.2,7.9,9.3,7.9,9.3s1.9,3.5,10.4,3.3c8.5-0.2,11,7,11,7s-0.4,9.9,1.4,11.8
			c1.7,1.9,1.9,8.3,1,12.6s-1.7,15.1-1,16.8c0.8,1.7,0.6,6.2,13.3,10.8s23.8,10.2,25.3,10.4c1.5,0.2,10.5,1.7,21.1-0.6
			c6.4-1.4,12.4-0.9,12.4-0.9"/>
		<path fill="none" stroke="#D1D2D1" stroke-width="3" stroke-linecap="round" stroke-linejoin="round" stroke-miterlimit="10" d="
			M405.2,260c0,0,1.3-4.6-0.5-8c-1.8-3.3-0.4-9.9-0.4-9.9s-3.5-8.8-1.5-13.1c1.9-4.4,1.3-12.1,1.7-18c0.4-5.9-1-16.2,6.1-19.2"/>
	</g>
</g>
<g id="northern-uplands">
	<path fill="none" stroke="#D1D2D1" stroke-width="3" stroke-linecap="round" stroke-linejoin="round" stroke-miterlimit="10" d="
		M212.5,40.1c0,0,4-1,4.8,1.7c0,0,1.4,5.4-0.1,12.9c-1.5,7.5-3.5,12.5-0.8,16.2s8.9,0.1,8.9,0.1l4.2-3.6c0,0,3.7-3,6.1-1.8
		c2.3,1.2,3.6,3.6,4.1,12.2c0.5,8.6-1.2,14-0.1,19.3c1,5.3-3.7,8.9-1.9,17.5c1.8,8.6,0.9,12.7,0.9,12.7s0.5,9.3,6.3,15.7
		c5.8,6.4,1.3,16.6,1.3,16.6s-2.4,4.1,1.9,12.7c4.4,8.6,2.8,18.7,2.8,18.7s3.7,5,6.8,5.9c3.1,0.9,10.9-1,10.9-1l13.5-20.1
		c0,0-0.9-4.6,4.8-6.8c0.3-0.1,0.5-0.2,0.8-0.3c3.7-1.2,0.8-16.6,0.8-16.6s0-7.3,3.5-7.3c3.5,0,2.5,5.8,6.2,7.5
		c3.7,1.7,17,4.6,21.6,8.3c4.6,3.7,11.4,4.6,12,8.9s4.8,6.8,2.3,10.4"/>
	<path fill="none" stroke="#D1D2D1" stroke-width="3" stroke-linecap="round" stroke-linejoin="round" stroke-miterlimit="10" d="
		M273.2,67.4c0,0-8.5,3.6-8.9,9.3c-0.4,5.7,0.3,8.2-0.3,9.3c-0.5,1-6.3,2.2-6.4,12.9s-3.3,18.4-3.3,18.8c0,0.4-0.8,11.8,4.6,21
		c5.4,9.1,2.7,17.6,2.7,17.6s-3.9,8.2-2.6,13.1c1.3,4.9,1.3,10.2,1.3,10.2s3.3,4.4,3.9,4.8s2.2,9.5,1,11.8"/>
	<path fill="none" stroke="#D1D2D1" stroke-width="3" stroke-linecap="round" stroke-linejoin="round" stroke-miterlimit="10" d="
		M257.7,197.1c0,0-2.1,3.5-0.8,8.4c1.3,4.9,5.5,9.7,5.8,16.2s-2.1,8,2.1,8.6c4.1,0.6,8.1,0.8,8.1,2.8c0,2.1-0.6,4.2-6.7,6.6
		c-6.1,2.3-9.7-0.3-11.1,3.3s0.3,13.4-5,15.6c-5.3,2.2-9.7,0-9.7,0l-21-27.4c0,0-10.3-18.3-16.5-16.6c-6.2,1.7-6.4,7.5-6.4,7.5
		s-0.3,4.5-2.8,5.5c-2.6,1-1.7,6.4-1.7,6.4s-1.4,5.3-5.3,6.6"/>
	<path fill="none" stroke="#D1D2D1" stroke-width="3" stroke-linecap="round" stroke-linejoin="round" stroke-miterlimit="10" d="
		M239.2,257.3c0,0-0.1,5.2-3.2,6.2c-3.1,1-2.6,4.2-5.4,3.1s-5.4,1.7-7.3-0.1c-1.9-1.8-7.3-6.7-11.8-14.8"/>
	<path fill="none" stroke="#D1D2D1" stroke-width="3" stroke-linecap="round" stroke-linejoin="round" stroke-miterlimit="10" d="
		M91.9,86.8c0,0,3.6,2.6,7.5,1.5c3.9-1,7.7-5.2,7.7-5.2s2.4-1.8,2.7,3.3c0.3,4.4,1.9,7.7,3.7,8.9c0,0,1.9,1.8,8.2,1.9
		c6.3,0.1,7.3,4.6,7.3,4.6s2.3,7.2,7.1,8c4.8,0.8,6.3,0.4,8.6,3.5s3.5,7.1,6.3,6.4c2.8-0.6,2.7-8,2.7-8l0.9-18.3
		c0,0-7.1-10.3-6.1-13.3c1-3,6.8-5.9,6.8-5.9l4.9-6.7c0,0-4.8-5.4-3.6-12c1.2-6.6,7.3-12.5,7.3-12.5s4.5,1.9,8.4,0.3
		s9.8-6.6,9.8-6.6s8.8,1.3,12.5-4.2s4.2,7.3,4.2,7.3s-0.5,6.9-7.2,7.6c-1.3,0.1-3,5.3-3,5.3s4.8-0.9,6.4-0.5s8.8,0.3,11.2-3
		c2.4-3.2,4.2-9,7.2-10"/>
	<path fill="none" stroke="#D1D2D1" stroke-width="3" stroke-linecap="round" stroke-linejoin="round" stroke-miterlimit="10" d="
		M118.6,29.2c0,0,0.8,5,5.8,5.7c5,0.8,6.1,1.9,6.1,1.9s3.3,1.7,0.1,7.9s-5.8,9-4.4,12.9c1.4,3.9,7,0.5,7,0.5l3.1-5.9
		c0,0,3.3-2.1,3.2,1.5s-1.4,14.9,0.8,18.5c2.2,3.6,8,8.5,8,8.5"/>
</g>
<g id="visitor-center">
	<path fill="none" stroke="#D1D2D1" stroke-width="3" stroke-linecap="round" stroke-linejoin="round" stroke-miterlimit="10" d="
		M8.8,80c4.1,0.6,9.7-1,13-2.8c3.3-1.8,11.7-10.5,13.7-15.1"/>
	<path fill="none" stroke="#D1D2D1" stroke-width="3" stroke-linecap="round" stroke-linejoin="round" stroke-miterlimit="10" d="
		M23.2,76.3c0,0,1.5,6.4,5.9,8.6"/>
	<path fill="none" stroke="#D1D2D1" stroke-width="3" stroke-linecap="round" stroke-linejoin="round" stroke-miterlimit="10" d="
		M76.9,67.8c0.1,1.2,3.2,4.9,3.1,6.4s-5.9,5.7-5.9,5.7l-7.5,3.3l-2.2,5c0,0-1.4,2.6,1.2,4.3l4.6,3.7c1.4,6.5-0.8,7.9-1.8,8.8
		c-1,0.8-4.5,2.5-9.1,1.5c-5.6-1.2-10.2-7.7-10.2-7.7l-3.4-0.6c0,0-1.4-5.9-5.3-5.5c-4,0.4-18.4-3.2-15.3-5.5
		c3.2-2.4,10.7-2.9,10.7-2.9s4.8-0.5,7.7-2c2.9-1.5,7.9-1.5,7.9-1.5l0.3-4.2c0,0,2.6-3.7,8.4-4.8c5.9-1.1,9.2-5.3,9.2-5.3l5.5,0.6
		c0,0,6.4-1.3,8.9-2.6c2.4-1.4,5.3-0.1,5.3-0.1l1.3-2.4c0,0,2.3,1.4,3.7,0.9c1.4-0.5,5.2-5,9.7-5.2"/>
	<path fill="none" stroke="#D1D2D1" stroke-width="3" stroke-linecap="round" stroke-linejoin="round" stroke-miterlimit="10" d="
		M68.3,105.3L57.2,91.7c0,0-1.9-2.3-1.9-3.5c0,0-1.3-5.2-3.9-7.4"/>
	<path fill="none" stroke="#D1D2D1" stroke-width="3" stroke-linecap="round" stroke-linejoin="round" stroke-miterlimit="10" d="
		M27.5,72.5c0,0,3.7-0.6,7.1,0.6c3.6,1.2,10.8,3.8,16.5,3.3"/>
	<path fill="none" stroke="#D1D2D1" stroke-width="3" stroke-linecap="round" stroke-linejoin="round" stroke-miterlimit="10" d="
		M41.2,75.1l0.3-12.2c0,0-0.6-1.9-1.5-2.1c-0.8-0.3-5.5,1.9-7.9-0.6c-2.4-2.4-3-11.1-3-11.1L28.5,38c0,0-1.9-2.4-1.9-3.4
		s1.8-2,1.8-2s-1.5-6.3-1.2-8.3s3.3-5.7,4.3-6.2c1-0.6,2.8,2.1,3.1,3.2c0.3,1.1,0.1,4.2-0.5,6.4c0,0-0.8,6,1.3,9.7
		c0.6,1-1,7.3,0.1,10.8c0,0,0.7,2.3,3.5,2.3"/>
	<path fill="none" stroke="#D1D2D1" stroke-width="3" stroke-linecap="round" stroke-linejoin="round" stroke-miterlimit="10" d="
		M41.2,71.8c-2-1.9-6.1-4.1-8.6-5"/>
	<path fill="none" stroke="#D1D2D1" stroke-width="3" stroke-linecap="round" stroke-linejoin="round" stroke-miterlimit="10" d="
		M41.5,61.6l1.7-2.2c0,0,3.9,3,4.2,4.2c0.4,1.2,0.4,4.4,0.5,5.2c0,1,0.9,1.3,1.7,0.2l3.5-4.3c0,0,0.4-5,1-5.8
		c0.6-0.8,5.9-3.7,7.7-7.9c0,0,1.4-2,0.2-11.3c0,0-1.5-8.3-0.4-10.4c1.1-2.1,7.2-3.6,7.2-3.6s1.4,2,2.8,2s3.3,2.2,3.7,3
		s7.7-0.3,9.9-1.8c2.2-1.5,3.4-0.3,3.4-0.3s3.4,2.7,2,7.3c-1.4,4.6-9.1,5.2-9.1,5.2"/>
	<path fill="none" stroke="#D1D2D1" stroke-width="3" stroke-linecap="round" stroke-linejoin="round" stroke-miterlimit="10" d="
		M42.9,59.3c0,0-5-7-2.8-9.9c2.3-3,6.2,4.1,6.2,4.1s1.6,0.9,5.5-0.6c3.9-1.5,6.9-2.6,11.9-2.3c5,0.3,11.7,3.5,13.3,4.2
		c1.6,0.6,5.6,2.4,3.7-1.5s-3.4-5-2.3-8.8c1.1-3.8,3.4-3.3,3.4-3.3s2.6,3.6,5,4.3c2.3,0.7,6.2,0.4,7.6-1c0,0,0.2-3.1,1.6-3.5
		c1.4-0.4,5.4-1.7,5.9-2.7s3.5-6.8,3.5-6.8s10.1,0.2,12.5-2.7"/>
	<path fill="none" stroke="#D1D2D1" stroke-width="3" stroke-linecap="round" stroke-linejoin="round" stroke-miterlimit="10" d="
		M74.2,79.9l8.9,8.5c0,0,2.7,2.8,7.1-0.6c4.4-3.4,6.7-2.6,6.7-2.6s2.3-0.6,0.8-6.4c-1.5-5.8,2.7-12.6,2.7-12.6l3.3-4
		c0,0-0.1-4.8,2.4-6.6c2.5-1.7,7.1-8.7,7.1-10.6s4.6-7,4.6-7s0.4-2.9,0.8-9c0.2-3.5,2.7-5.7,2.7-5.7l0.4-10.8l1.9-3.3"/>
</g>
</svg>
