<?xml version="1.0" encoding="iso-8859-1"?>
<!-- Generator: Adobe Illustrator 19.1.0, SVG Export Plug-In . SVG Version: 6.00 Build 0)  -->
<svg version="1.1" id="Layer_1" xmlns="http://www.w3.org/2000/svg" xmlns:xlink="http://www.w3.org/1999/xlink" x="0px" y="0px"
	 viewBox="0 0 82.028 104.076" style="enable-background:new 0 0 82.028 104.076;" xml:space="preserve">
<g>
	<path style="opacity:0.7;fill:#1461AE;" d="M40.807,58.368c0,0-7-4.437-19.77-4.437c-11.855,0-15.83-2.605-16.98-2.605
		c-1.917,0-3.167,1.292-2.25,3.125c0.917,1.833,28.187,38.687,36.75,47.25c0,0,0.875,0.875,2.25,0.875h0.276
		c1.016,0,1.742-0.367,2.25-0.875c7.508-7.508,35.646-45.567,36.75-47.25c0.875-1.333,0.625-3.25-2.25-3.125
		c-1.15,0-5.125,2.605-16.98,2.605C48.083,53.931,40.807,58.368,40.807,58.368z"/>
	<path style="fill:none;stroke:#FFFFFF;stroke-width:3;stroke-miterlimit:10;" d="M43.14,29.713c0,0,0,7.508,0,10.374
		s4.415,0,6.258,0c1.57,0,2.594,0.751,2.594,2.594c0,0-4.368,25.549-5.119,27.438s-2.389,4.436-5.119,5.665c0,0-0.637,0.273-1.411,0
		c-2.823-0.996-4.368-3.777-5.119-5.665c-0.751-1.888-5.119-27.438-5.119-27.438c0-1.843,1.024-2.594,2.594-2.594
		c1.843,0,5.941,2.867,5.941,0s0-10.374,0-10.374"/>
	<path style="fill:none;stroke:#FFFFFF;stroke-width:3;stroke-miterlimit:10;" d="M42.323,29.474H39.42
		c-1.577,0-2.868-1.291-2.868-2.868V4.368c0-1.577,1.291-2.868,2.868-2.868h2.903c1.577,0,2.868,1.291,2.868,2.868v22.238
		C45.191,28.183,43.901,29.474,42.323,29.474z"/>
	<line style="fill:none;stroke:#FFFFFF;stroke-width:3;stroke-miterlimit:10;" x1="44.557" y1="6.285" x2="40.974" y2="6.285"/>
	<line style="fill:none;stroke:#FFFFFF;stroke-width:3;stroke-miterlimit:10;" x1="44.557" y1="14.285" x2="40.974" y2="14.285"/>
	<line style="fill:none;stroke:#FFFFFF;stroke-width:3;stroke-miterlimit:10;" x1="44.557" y1="22.201" x2="40.974" y2="22.201"/>
	<path style="fill:none;stroke:#FFFFFF;stroke-width:3;stroke-miterlimit:10;" d="M40.807,58.368c0,0-7-4.437-19.77-4.437
		c-11.855,0-15.83-2.605-16.98-2.605c-1.917,0-3.167,1.292-2.25,3.125c0.917,1.833,28.187,38.687,36.75,47.25
		c0,0,0.875,0.875,2.25,0.875h0.276c1.016,0,1.742-0.367,2.25-0.875c7.508-7.508,35.646-45.567,36.75-47.25
		c0.875-1.333,0.625-3.25-2.25-3.125c-1.15,0-5.125,2.605-16.98,2.605C48.083,53.931,40.807,58.368,40.807,58.368z"/>
</g>
<g>
</g>
<g>
</g>
<g>
</g>
<g>
</g>
<g>
</g>
<g>
</g>
</svg>
