<?xml version="1.0" encoding="iso-8859-1"?>
<!-- Generator: Adobe Illustrator 19.1.0, SVG Export Plug-In . SVG Version: 6.00 Build 0)  -->
<svg version="1.1" id="Layer_1" xmlns="http://www.w3.org/2000/svg" xmlns:xlink="http://www.w3.org/1999/xlink" x="0px" y="0px"
	 viewBox="0 0 47.989 47.989" style="enable-background:new 0 0 47.989 47.989;" xml:space="preserve">
<path style="fill:none;stroke:#1461AE;stroke-width:2;stroke-linecap:round;stroke-miterlimit:10;" d="M24.081,27.247
	c0,0-1.485-0.941-4.193-0.941c-2.514,0-3.358-0.552-3.601-0.552c-0.407,0-0.672,0.274-0.477,0.663
	c0.194,0.389,5.979,8.206,7.795,10.022c0,0,0.186,0.186,0.477,0.186h0.059c0.215,0,0.37-0.078,0.477-0.186
	c1.592-1.592,7.56-9.665,7.795-10.022c0.186-0.283,0.133-0.689-0.477-0.663c-0.244,0-1.087,0.552-3.601,0.552
	C25.624,26.306,24.081,27.247,24.081,27.247z"/>
<line style="fill:none;stroke:#1461AE;stroke-width:2;stroke-linecap:round;stroke-miterlimit:10;" x1="24.081" y1="25.761" x2="24.081" y2="11.322"/>
<circle style="fill:none;stroke:#CDCCCC;stroke-width:2;stroke-linecap:round;stroke-miterlimit:10;" cx="23.995" cy="23.995" r="22.995"/>
<g>
</g>
<g>
</g>
<g>
</g>
<g>
</g>
<g>
</g>
<g>
</g>
</svg>
