<?xml version="1.0" encoding="iso-8859-1"?>
<!-- Generator: Adobe Illustrator 19.1.0, SVG Export Plug-In . SVG Version: 6.00 Build 0)  -->
<svg version="1.1" id="Layer_1" xmlns="http://www.w3.org/2000/svg" xmlns:xlink="http://www.w3.org/1999/xlink" x="0px" y="0px"
	 viewBox="0 0 76 76" style="enable-background:new 0 0 76 76;" xml:space="preserve">
<g>
	<path style="fill:none;stroke:#FFFFFF;stroke-width:3;stroke-miterlimit:10;" d="M31.348,38.211c0,0-2.792,4.405-2.792,12.442
		c0,7.46-1.639,9.962-1.639,10.685c0,1.206,0.813,1.993,1.967,1.416s24.346-17.739,29.735-23.127c0,0,0.551-0.551,0.551-1.416
		v-0.174c0-0.639-0.231-1.096-0.551-1.416c-4.725-4.725-28.676-22.432-29.735-23.127c-0.839-0.551-2.045-0.393-1.967,1.416
		c0,0.724,1.639,3.225,1.639,10.685C28.555,33.632,31.348,38.211,31.348,38.211z"/>
	<circle style="fill:none;stroke:#FFFFFF;stroke-width:3;stroke-miterlimit:10;" cx="38" cy="38" r="36.5"/>
</g>
<g>
</g>
<g>
</g>
<g>
</g>
<g>
</g>
<g>
</g>
<g>
</g>
</svg>
