<?xml version="1.0" encoding="utf-8"?>
<!-- Generator: Adobe Illustrator 19.0.0, SVG Export Plug-In . SVG Version: 6.00 Build 0)  -->
<svg version="1.1" id="Layer_1" xmlns="http://www.w3.org/2000/svg" xmlns:xlink="http://www.w3.org/1999/xlink" x="0px" y="0px"
	 viewBox="-163 78.4 472.1 45.6" style="enable-background:new -163 78.4 472.1 45.6;" xml:space="preserve">
<style type="text/css">
	.st0{fill:none;stroke:#CCCCCC;stroke-width:2;stroke-linecap:round;stroke-miterlimit:10;}
</style>
<g>
	<g>
		<path class="st0" d="M273.3,122c4.1-4.1,0-10.2,0-10.2c-6.4-6.4-10.6-6.4-23.8-7s-39.1,5.7-59.6,7.4c-20.5,1.7-80-5.9-80-5.9
			L-4.5,78.4"/>
		<path class="st0" d="M267.3,105.2c0,0,11.5-6.1,24.2-4.4c9.7,1.3,12.4,6,14.5,9.8C293.1,106.3,280.5,118.4,267.3,105.2z"/>
		<path class="st0" d="M244.8,104.6c23.3-0.7,29.8-1.5,38.4-10.2c0,0,5.5-8.1,0-13.6"/>
		<path class="st0" d="M268.4,105.1c0,0,9.3,2.5,20.5,0.8c9.9-1.5,15.7,3.5,15.7,3.5"/>
	</g>
	<g>
		<path class="st0" d="M-129.4,122c-4.1-4.1,0-10.2,0-10.2c6.4-6.4,10.6-6.4,23.8-7s39.1,5.7,59.6,7.4c20.5,1.7,80-5.9,80-5.9
			l114.5-27.9"/>
		<path class="st0" d="M-123.3,105.2c0,0-11.5-6.1-24.2-4.4c-9.7,1.3-12.4,6-14.5,9.8C-149.2,106.3-136.6,118.4-123.3,105.2z"/>
		<path class="st0" d="M-100.9,104.6c-23.3-0.7-29.8-1.5-38.4-10.2c0,0-5.5-8.1,0-13.6"/>
		<path class="st0" d="M-124.4,105.1c0,0-9.3,2.5-20.5,0.8c-9.9-1.5-15.7,3.5-15.7,3.5"/>
	</g>
</g>
</svg>
