<?xml version="1.0" encoding="iso-8859-1"?>
<!-- Generator: Adobe Illustrator 19.1.0, SVG Export Plug-In . SVG Version: 6.00 Build 0)  -->
<svg version="1.1" id="Layer_1" xmlns="http://www.w3.org/2000/svg" xmlns:xlink="http://www.w3.org/1999/xlink" x="0px" y="0px"
	 viewBox="0 0 260.993 56.185" style="enable-background:new 0 0 260.993 56.185;" xml:space="preserve">
<g>
	<path style="fill:none;stroke:#FFFFFF;stroke-width:3;stroke-miterlimit:10;" d="M0.19,21.789c0,0,78.218-9.995,105.16-7.822
		s60.945,10.559,78.327,9.689c17.382-0.869,22.814-0.76,31.287-9.234c0,0,5.377-7.985,0-13.362"/>
	<path style="fill:none;stroke:#FFFFFF;stroke-width:3;stroke-miterlimit:10;" d="M207.053,23.206c0,0,15.081,8.055,31.798,5.843
		c12.766-1.689,16.34-7.949,19.024-12.909C241.025,21.712,224.429,5.83,207.053,23.206z"/>
	<path style="fill:none;stroke:#FFFFFF;stroke-width:3;stroke-miterlimit:10;" d="M177.484,23.874
		c30.635,0.978,39.172,2.019,50.516,13.362c0,0,7.199,10.689,0,17.888"/>
	<path style="fill:none;stroke:#FFFFFF;stroke-width:3;stroke-miterlimit:10;" d="M208.445,23.222c0,0,12.167-3.259,26.942-1.086
		c12.962,1.906,20.641-4.563,20.641-4.563"/>
</g>
<g>
</g>
<g>
</g>
<g>
</g>
<g>
</g>
<g>
</g>
<g>
</g>
</svg>
