<?xml version="1.0" encoding="iso-8859-1"?>
<!-- Generator: Adobe Illustrator 19.1.0, SVG Export Plug-In . SVG Version: 6.00 Build 0)  -->
<svg version="1.1" id="Layer_1" xmlns="http://www.w3.org/2000/svg" xmlns:xlink="http://www.w3.org/1999/xlink" x="0px" y="0px"
	 viewBox="0 0 472.117 45.626" style="enable-background:new 0 0 472.117 45.626;" xml:space="preserve">
<g>
	<g>
		<path style="fill:none;stroke:#FFFFFF;stroke-width:2;stroke-linecap:round;stroke-miterlimit:10;" d="M437.4,1
			c4.09,4.09,0,10.163,0,10.163c-6.445,6.445-10.576,6.362-23.797,7.023s-39.083-5.717-59.574-7.37
			c-20.492-1.653-79.983,5.949-79.983,5.949L159.56,44.626"/>
		<path style="fill:none;stroke:#FFFFFF;stroke-width:2;stroke-linecap:round;stroke-miterlimit:10;" d="M431.383,17.844
			c0,0,11.47,6.127,24.185,4.444c9.71-1.285,12.428-6.046,14.47-9.819C457.222,16.707,444.6,4.627,431.383,17.844z"/>
		<path style="fill:none;stroke:#FFFFFF;stroke-width:2;stroke-linecap:round;stroke-miterlimit:10;" d="M408.894,18.352
			c23.301,0.744,29.794,1.535,38.422,10.163c0,0,5.475,8.13,0,13.606"/>
		<path style="fill:none;stroke:#FFFFFF;stroke-width:2;stroke-linecap:round;stroke-miterlimit:10;" d="M432.443,17.856
			c0,0,9.254-2.479,20.492-0.826c9.859,1.45,15.699-3.47,15.699-3.47"/>
	</g>
	<g>
		<path style="fill:none;stroke:#FFFFFF;stroke-width:2;stroke-linecap:round;stroke-miterlimit:10;" d="M34.717,1
			c-4.09,4.09,0,10.163,0,10.163c6.445,6.445,10.576,6.362,23.797,7.023s39.083-5.717,59.574-7.37s79.983,5.949,79.983,5.949
			l114.485,27.86"/>
		<path style="fill:none;stroke:#FFFFFF;stroke-width:2;stroke-linecap:round;stroke-miterlimit:10;" d="M40.734,17.844
			c0,0-11.47,6.127-24.185,4.444c-9.71-1.285-12.428-6.046-14.47-9.819C14.895,16.707,27.517,4.627,40.734,17.844z"/>
		<path style="fill:none;stroke:#FFFFFF;stroke-width:2;stroke-linecap:round;stroke-miterlimit:10;" d="M63.223,18.352
			c-23.301,0.744-29.794,1.535-38.422,10.163c0,0-5.475,8.13,0,13.606"/>
		<path style="fill:none;stroke:#FFFFFF;stroke-width:2;stroke-linecap:round;stroke-miterlimit:10;" d="M39.674,17.856
			c0,0-9.254-2.479-20.492-0.826c-9.859,1.45-15.699-3.47-15.699-3.47"/>
	</g>
</g>
<g>
</g>
<g>
</g>
<g>
</g>
<g>
</g>
<g>
</g>
<g>
</g>
</svg>
