<?xml version="1.0" encoding="iso-8859-1"?>
<!-- Generator: Adobe Illustrator 19.1.0, SVG Export Plug-In . SVG Version: 6.00 Build 0)  -->
<svg version="1.1" id="Layer_1" xmlns="http://www.w3.org/2000/svg" xmlns:xlink="http://www.w3.org/1999/xlink" x="0px" y="0px"
	 viewBox="0 0 260.993 56.185" style="enable-background:new 0 0 260.993 56.185;" xml:space="preserve">
<g>
	<path style="fill:none;stroke:#FFFFFF;stroke-width:3;stroke-miterlimit:10;" d="M260.803,21.789c0,0-78.218-9.995-105.16-7.822
		s-60.945,10.559-78.327,9.689c-17.382-0.869-22.814-0.76-31.287-9.234c0,0-5.377-7.985,0-13.362"/>
	<path style="fill:none;stroke:#FFFFFF;stroke-width:3;stroke-miterlimit:10;" d="M53.94,23.206c0,0-15.081,8.055-31.798,5.843
		C9.377,27.36,5.802,21.1,3.118,16.14C19.968,21.712,36.564,5.83,53.94,23.206z"/>
	<path style="fill:none;stroke:#FFFFFF;stroke-width:3;stroke-miterlimit:10;" d="M83.509,23.874
		c-30.635,0.978-39.172,2.019-50.516,13.362c0,0-7.199,10.689,0,17.888"/>
	<path style="fill:none;stroke:#FFFFFF;stroke-width:3;stroke-miterlimit:10;" d="M52.548,23.222c0,0-12.167-3.259-26.942-1.086
		c-12.962,1.906-20.641-4.563-20.641-4.563"/>
</g>
<g>
</g>
<g>
</g>
<g>
</g>
<g>
</g>
<g>
</g>
<g>
</g>
</svg>
