<?xml version="1.0" encoding="utf-8"?>
<!-- Generator: Adobe Illustrator 19.0.0, SVG Export Plug-In . SVG Version: 6.00 Build 0)  -->
<svg version="1.1" id="Layer_1" xmlns="http://www.w3.org/2000/svg" xmlns:xlink="http://www.w3.org/1999/xlink" x="0px" y="0px"
	 viewBox="-163 78.4 472.1 45.6" style="enable-background:new -163 78.4 472.1 45.6;" xml:space="preserve">
<style type="text/css">
	.st0{fill:none;stroke:#CCCCCC;stroke-width:2;stroke-linecap:round;stroke-miterlimit:10;}
</style>
<g>
	<g>
		<path class="st0" d="M274.4,79.4c4.1,4.1,0,10.2,0,10.2c-6.4,6.4-10.6,6.4-23.8,7c-13.2,0.7-39.1-5.7-59.6-7.4
			c-20.5-1.7-80,5.9-80,5.9L-3.4,123"/>
		<path class="st0" d="M268.4,96.2c0,0,11.5,6.1,24.2,4.4c9.7-1.3,12.4-6,14.5-9.8C294.2,95.1,281.6,83,268.4,96.2z"/>
		<path class="st0" d="M245.9,96.7c23.3,0.7,29.8,1.5,38.4,10.2c0,0,5.5,8.1,0,13.6"/>
		<path class="st0" d="M269.4,96.2c0,0,9.3-2.5,20.5-0.8c9.9,1.4,15.7-3.5,15.7-3.5"/>
	</g>
	<g>
		<path class="st0" d="M-128.3,79.4c-4.1,4.1,0,10.2,0,10.2c6.4,6.4,10.6,6.4,23.8,7s39.1-5.7,59.6-7.4s80,5.9,80,5.9L149.6,123"/>
		<path class="st0" d="M-122.3,96.2c0,0-11.5,6.1-24.2,4.4c-9.7-1.3-12.4-6-14.5-9.8C-148.1,95.1-135.5,83-122.3,96.2z"/>
		<path class="st0" d="M-99.8,96.7c-23.3,0.7-29.8,1.5-38.4,10.2c0,0-5.5,8.1,0,13.6"/>
		<path class="st0" d="M-123.3,96.2c0,0-9.3-2.5-20.5-0.8c-9.9,1.4-15.7-3.5-15.7-3.5"/>
	</g>
</g>
</svg>
