<?xml version="1.0" encoding="iso-8859-1"?>
<!-- Generator: Adobe Illustrator 19.1.0, SVG Export Plug-In . SVG Version: 6.00 Build 0)  -->
<svg version="1.1" id="Layer_1" xmlns="http://www.w3.org/2000/svg" xmlns:xlink="http://www.w3.org/1999/xlink" x="0px" y="0px"
	 viewBox="0 0 472.117 45.626" style="enable-background:new 0 0 472.117 45.626;" xml:space="preserve">
<g>
	<g>
		<path style="fill:none;stroke:#FFFFFF;stroke-width:2;stroke-linecap:round;stroke-miterlimit:10;" d="M437.4,44.626
			c4.09-4.09,0-10.163,0-10.163c-6.445-6.445-10.576-6.362-23.797-7.023s-39.083,5.717-59.574,7.37
			c-20.492,1.653-79.983-5.949-79.983-5.949L159.56,1"/>
		<path style="fill:none;stroke:#FFFFFF;stroke-width:2;stroke-linecap:round;stroke-miterlimit:10;" d="M431.384,27.783
			c0,0,11.47-6.127,24.185-4.444c9.71,1.285,12.428,6.046,14.47,9.819C457.222,28.919,444.6,40.999,431.384,27.783z"/>
		<path style="fill:none;stroke:#FFFFFF;stroke-width:2;stroke-linecap:round;stroke-miterlimit:10;" d="M408.894,27.275
			c23.301-0.744,29.794-1.535,38.422-10.163c0,0,5.475-8.13,0-13.606"/>
		<path style="fill:none;stroke:#FFFFFF;stroke-width:2;stroke-linecap:round;stroke-miterlimit:10;" d="M432.443,27.77
			c0,0,9.254,2.479,20.492,0.826c9.859-1.45,15.699,3.47,15.699,3.47"/>
	</g>
	<g>
		<path style="fill:none;stroke:#FFFFFF;stroke-width:2;stroke-linecap:round;stroke-miterlimit:10;" d="M34.717,44.626
			c-4.09-4.09,0-10.163,0-10.163c6.445-6.445,10.576-6.362,23.797-7.023s39.083,5.717,59.574,7.37s79.983-5.949,79.983-5.949
			L312.557,1"/>
		<path style="fill:none;stroke:#FFFFFF;stroke-width:2;stroke-linecap:round;stroke-miterlimit:10;" d="M40.734,27.783
			c0,0-11.47-6.127-24.185-4.444c-9.71,1.285-12.428,6.046-14.47,9.819C14.895,28.919,27.517,40.999,40.734,27.783z"/>
		<path style="fill:none;stroke:#FFFFFF;stroke-width:2;stroke-linecap:round;stroke-miterlimit:10;" d="M63.223,27.275
			c-23.301-0.744-29.794-1.535-38.422-10.163c0,0-5.475-8.13,0-13.606"/>
		<path style="fill:none;stroke:#FFFFFF;stroke-width:2;stroke-linecap:round;stroke-miterlimit:10;" d="M39.674,27.77
			c0,0-9.254,2.479-20.492,0.826c-9.859-1.45-15.699,3.47-15.699,3.47"/>
	</g>
</g>
<g>
</g>
<g>
</g>
<g>
</g>
<g>
</g>
<g>
</g>
<g>
</g>
</svg>
