<?xml version="1.0" encoding="iso-8859-1"?>
<!-- Generator: Adobe Illustrator 19.1.0, SVG Export Plug-In . SVG Version: 6.00 Build 0)  -->
<svg version="1.1" id="Layer_1" xmlns="http://www.w3.org/2000/svg" xmlns:xlink="http://www.w3.org/1999/xlink" x="0px" y="0px"
	 viewBox="0 0 1202.711 19.102" style="enable-background:new 0 0 1202.711 19.102;" perserveAspectRatio="false">
<g>
	<g>
		<g>
			<polyline style="fill:none;stroke:#CDCCCC;stroke-width:2;stroke-linecap:round;stroke-miterlimit:10;" points="1.585,14.328
				540.623,14.328 662.088,14.328 			"/>

				<line style="fill:none;stroke:#CDCCCC;stroke-width:2;stroke-linecap:round;stroke-miterlimit:10;" x1="540.623" y1="4.506" x2="31.418" y2="4.506"/>
			<path style="fill:none;stroke:#CDCCCC;stroke-width:2;stroke-linecap:round;stroke-miterlimit:10;" d="M91.744,14.7
				c-3.924,1.905-8.187,3.265-12.652,3.265c-13.162,0-23.752-11.151-28.956-14.551c-8.665-5.661-18.755,0.409-18.755,0.409
				S15.624,14.328,1,14.328"/>
			<path style="fill:none;stroke:#CDCCCC;stroke-width:2;stroke-linecap:round;stroke-miterlimit:10;" d="M169.846,14.337
				c-4.195,2.162-8.803,3.764-13.65,3.764c-13.162,0-23.618-11.232-28.956-14.551c-6.492-4.037-13.535-1.788-16.176-0.682
				l-2.689,1.16"/>
			<path style="fill:none;stroke:#CDCCCC;stroke-width:2;stroke-linecap:round;stroke-miterlimit:10;" d="M187.528,3.278
				c0,0,9.944-4.957,18.134,0.136c5.337,3.319,15.794,14.551,28.956,14.551c4.668,0,9.115-1.487,13.185-3.528"/>
			<path style="fill:none;stroke:#CDCCCC;stroke-width:2;stroke-linecap:round;stroke-miterlimit:10;" d="M325.604,14.217
				c-4.257,2.222-8.946,3.885-13.881,3.885c-13.162,0-23.618-11.232-28.956-14.551c-6.492-4.037-13.535-1.788-16.176-0.682
				l-1.263,0.546"/>
			<path style="fill:none;stroke:#CDCCCC;stroke-width:2;stroke-linecap:round;stroke-miterlimit:10;" d="M342.432,3.551"/>
			<path style="fill:none;stroke:#CDCCCC;stroke-width:2;stroke-linecap:round;stroke-miterlimit:10;" d="M400.956,15.397
				c-3.499,1.531-7.244,2.568-11.142,2.568c-13.162,0-23.618-11.232-28.956-14.551c-8.189-5.093-17.256-0.182-17.256-0.182"/>
			<path style="fill:none;stroke:#CDCCCC;stroke-width:2;stroke-linecap:round;stroke-miterlimit:10;" d="M468.519,15.397
				c-3.499,1.531-7.244,2.568-11.142,2.568c-13.162,0-23.618-11.232-28.956-14.551c-8.189-5.093-17.256-0.182-17.256-0.182"/>
			<path style="fill:none;stroke:#CDCCCC;stroke-width:2;stroke-linecap:round;stroke-miterlimit:10;" d="M533.449,15.397
				c-3.499,1.531-7.244,2.568-11.142,2.568c-13.162,0-23.618-11.232-28.956-14.551c-8.189-5.093-17.256-0.182-17.256-0.182"/>
			<path style="fill:none;stroke:#CDCCCC;stroke-width:2;stroke-linecap:round;stroke-miterlimit:10;" d="M575.391,3.414
				c-8.189-5.093-17.256-0.182-17.256-0.182"/>
		</g>
	</g>
	<g>
		<g>

				<line style="fill:none;stroke:#CDCCCC;stroke-width:2;stroke-linecap:round;stroke-miterlimit:10;" x1="1201.126" y1="14.328" x2="662.088" y2="14.328"/>
			<polyline style="fill:none;stroke:#CDCCCC;stroke-width:2;stroke-linecap:round;stroke-miterlimit:10;" points="1171.293,4.506
				662.088,4.506 540.623,4.506 			"/>
			<path style="fill:none;stroke:#CDCCCC;stroke-width:2;stroke-linecap:round;stroke-miterlimit:10;" d="M1110.966,14.7
				c3.924,1.905,8.187,3.265,12.652,3.265c13.162,0,23.752-11.151,28.956-14.551c8.665-5.661,18.755,0.409,18.755,0.409
				s15.757,10.504,30.381,10.504"/>
			<path style="fill:none;stroke:#CDCCCC;stroke-width:2;stroke-linecap:round;stroke-miterlimit:10;" d="M1032.865,14.337
				c4.195,2.162,8.803,3.764,13.65,3.764c13.162,0,23.618-11.232,28.956-14.551c6.492-4.037,13.535-1.788,16.176-0.682l2.689,1.16"
				/>
			<path style="fill:none;stroke:#CDCCCC;stroke-width:2;stroke-linecap:round;stroke-miterlimit:10;" d="M1015.182,3.278
				c0,0-9.944-4.957-18.134,0.136c-5.337,3.319-15.794,14.551-28.956,14.551c-4.668,0-9.115-1.487-13.185-3.528"/>
			<path style="fill:none;stroke:#CDCCCC;stroke-width:2;stroke-linecap:round;stroke-miterlimit:10;" d="M877.107,14.217
				c4.257,2.222,8.946,3.885,13.881,3.885c13.162,0,23.618-11.232,28.956-14.551c6.492-4.037,13.535-1.788,16.176-0.682l1.263,0.546
				"/>
			<path style="fill:none;stroke:#CDCCCC;stroke-width:2;stroke-linecap:round;stroke-miterlimit:10;" d="M860.279,3.551"/>
			<path style="fill:none;stroke:#CDCCCC;stroke-width:2;stroke-linecap:round;stroke-miterlimit:10;" d="M801.754,15.397
				c3.499,1.531,7.244,2.568,11.142,2.568c13.162,0,23.618-11.232,28.956-14.551c8.189-5.093,17.256-0.182,17.256-0.182"/>
			<path style="fill:none;stroke:#CDCCCC;stroke-width:2;stroke-linecap:round;stroke-miterlimit:10;" d="M734.192,15.397
				c3.499,1.531,7.244,2.568,11.142,2.568c13.162,0,23.618-11.232,28.956-14.551c8.189-5.093,17.256-0.182,17.256-0.182"/>
			<path style="fill:none;stroke:#CDCCCC;stroke-width:2;stroke-linecap:round;stroke-miterlimit:10;" d="M669.262,15.397
				c3.499,1.531,7.244,2.568,11.142,2.568c13.162,0,23.618-11.232,28.956-14.551c8.189-5.093,17.256-0.182,17.256-0.182"/>
			<path style="fill:none;stroke:#CDCCCC;stroke-width:2;stroke-linecap:round;stroke-miterlimit:10;" d="M596.434,15.397
				c3.499,1.531,7.244,2.568,11.142,2.568c13.162,0,23.618-11.232,28.956-14.551c8.189-5.093,17.256-0.182,17.256-0.182"/>
		</g>
	</g>
</g>
<g>
</g>
<g>
</g>
<g>
</g>
<g>
</g>
<g>
</g>
<g>
</g>
</svg>
