<?xml version="1.0" encoding="iso-8859-1"?>
<!-- Generator: Adobe Illustrator 19.1.0, SVG Export Plug-In . SVG Version: 6.00 Build 0)  -->
<svg version="1.1" id="Layer_1" xmlns="http://www.w3.org/2000/svg" xmlns:xlink="http://www.w3.org/1999/xlink" x="0px" y="0px"
	 viewBox="0 0 1202.711 19.102" style="enable-background:new 0 0 1202.711 19.102;" xml:space="preserve">
<g>
	<g>
		<g>
			<polyline style="fill:none;stroke:#CDCCCC;stroke-width:2;stroke-linecap:round;stroke-miterlimit:10;" points="1201.126,4.774 
				662.088,4.774 540.623,4.774 			"/>
			
				<line style="fill:none;stroke:#CDCCCC;stroke-width:2;stroke-linecap:round;stroke-miterlimit:10;" x1="662.088" y1="14.596" x2="1171.293" y2="14.596"/>
			<path style="fill:none;stroke:#CDCCCC;stroke-width:2;stroke-linecap:round;stroke-miterlimit:10;" d="M1110.966,4.402
				c3.924-1.905,8.187-3.265,12.652-3.265c13.162,0,23.752,11.151,28.956,14.551c8.665,5.661,18.755-0.409,18.755-0.409
				s15.757-10.504,30.381-10.504"/>
			<path style="fill:none;stroke:#CDCCCC;stroke-width:2;stroke-linecap:round;stroke-miterlimit:10;" d="M1032.865,4.765
				c4.195-2.162,8.803-3.764,13.649-3.764c13.162,0,23.619,11.232,28.956,14.551c6.492,4.037,13.535,1.788,16.176,0.682l2.689-1.16"
				/>
			<path style="fill:none;stroke:#CDCCCC;stroke-width:2;stroke-linecap:round;stroke-miterlimit:10;" d="M1015.182,15.824
				c0,0-9.944,4.957-18.134-0.136c-5.337-3.319-15.794-14.551-28.956-14.551c-4.668,0-9.115,1.487-13.185,3.528"/>
			<path style="fill:none;stroke:#CDCCCC;stroke-width:2;stroke-linecap:round;stroke-miterlimit:10;" d="M877.107,4.885
				C881.364,2.663,886.053,1,890.988,1c13.162,0,23.618,11.232,28.956,14.551c6.492,4.037,13.535,1.788,16.176,0.682l1.263-0.546"/>
			<path style="fill:none;stroke:#CDCCCC;stroke-width:2;stroke-linecap:round;stroke-miterlimit:10;" d="M860.279,15.551"/>
			<path style="fill:none;stroke:#CDCCCC;stroke-width:2;stroke-linecap:round;stroke-miterlimit:10;" d="M801.754,3.705
				c3.499-1.531,7.244-2.568,11.142-2.568c13.162,0,23.618,11.232,28.956,14.551c8.189,5.093,17.256,0.182,17.256,0.182"/>
			<path style="fill:none;stroke:#CDCCCC;stroke-width:2;stroke-linecap:round;stroke-miterlimit:10;" d="M734.192,3.705
				c3.499-1.531,7.244-2.568,11.142-2.568c13.162,0,23.618,11.232,28.956,14.551c8.189,5.093,17.256,0.182,17.256,0.182"/>
			<path style="fill:none;stroke:#CDCCCC;stroke-width:2;stroke-linecap:round;stroke-miterlimit:10;" d="M669.261,3.705
				c3.499-1.531,7.244-2.568,11.142-2.568c13.162,0,23.618,11.232,28.956,14.551c8.189,5.093,17.256,0.182,17.256,0.182"/>
			<path style="fill:none;stroke:#CDCCCC;stroke-width:2;stroke-linecap:round;stroke-miterlimit:10;" d="M627.32,15.688
				c8.189,5.093,17.256,0.182,17.256,0.182"/>
		</g>
	</g>
	<g>
		<g>
			
				<line style="fill:none;stroke:#CDCCCC;stroke-width:2;stroke-linecap:round;stroke-miterlimit:10;" x1="1.585" y1="4.774" x2="540.623" y2="4.774"/>
			<polyline style="fill:none;stroke:#CDCCCC;stroke-width:2;stroke-linecap:round;stroke-miterlimit:10;" points="31.418,14.596 
				540.623,14.596 662.088,14.596 			"/>
			<path style="fill:none;stroke:#CDCCCC;stroke-width:2;stroke-linecap:round;stroke-miterlimit:10;" d="M91.744,4.402
				c-3.924-1.905-8.187-3.265-12.652-3.265c-13.162,0-23.752,11.151-28.956,14.551c-8.665,5.661-18.755-0.409-18.755-0.409
				S15.624,4.774,1,4.774"/>
			<path style="fill:none;stroke:#CDCCCC;stroke-width:2;stroke-linecap:round;stroke-miterlimit:10;" d="M169.846,4.765
				C165.651,2.603,161.043,1,156.197,1c-13.162,0-23.618,11.232-28.956,14.551c-6.492,4.037-13.535,1.788-16.176,0.682l-2.689-1.16"
				/>
			<path style="fill:none;stroke:#CDCCCC;stroke-width:2;stroke-linecap:round;stroke-miterlimit:10;" d="M187.528,15.824
				c0,0,9.944,4.957,18.134-0.136c5.337-3.319,15.794-14.551,28.956-14.551c4.668,0,9.115,1.487,13.185,3.528"/>
			<path style="fill:none;stroke:#CDCCCC;stroke-width:2;stroke-linecap:round;stroke-miterlimit:10;" d="M325.604,4.885
				C321.347,2.663,316.658,1,311.722,1c-13.162,0-23.618,11.232-28.956,14.551c-6.492,4.037-13.535,1.788-16.176,0.682l-1.263-0.546
				"/>
			<path style="fill:none;stroke:#CDCCCC;stroke-width:2;stroke-linecap:round;stroke-miterlimit:10;" d="M342.432,15.551"/>
			<path style="fill:none;stroke:#CDCCCC;stroke-width:2;stroke-linecap:round;stroke-miterlimit:10;" d="M400.956,3.705
				c-3.499-1.531-7.244-2.568-11.142-2.568c-13.162,0-23.618,11.232-28.956,14.551c-8.189,5.093-17.256,0.182-17.256,0.182"/>
			<path style="fill:none;stroke:#CDCCCC;stroke-width:2;stroke-linecap:round;stroke-miterlimit:10;" d="M468.519,3.705
				c-3.499-1.531-7.244-2.568-11.142-2.568c-13.162,0-23.618,11.232-28.956,14.551c-8.189,5.093-17.256,0.182-17.256,0.182"/>
			<path style="fill:none;stroke:#CDCCCC;stroke-width:2;stroke-linecap:round;stroke-miterlimit:10;" d="M533.449,3.705
				c-3.499-1.531-7.244-2.568-11.142-2.568c-13.162,0-23.618,11.232-28.956,14.551c-8.189,5.093-17.256,0.182-17.256,0.182"/>
			<path style="fill:none;stroke:#CDCCCC;stroke-width:2;stroke-linecap:round;stroke-miterlimit:10;" d="M606.276,3.705
				c-3.499-1.531-7.244-2.568-11.142-2.568c-13.162,0-23.618,11.232-28.956,14.551c-8.189,5.093-17.256,0.182-17.256,0.182"/>
		</g>
	</g>
</g>
<g>
</g>
<g>
</g>
<g>
</g>
<g>
</g>
<g>
</g>
<g>
</g>
</svg>
