<?xml version="1.0" encoding="iso-8859-1"?>
<!-- Generator: Adobe Illustrator 19.1.0, SVG Export Plug-In . SVG Version: 6.00 Build 0)  -->
<svg version="1.1" id="Layer_1" xmlns="http://www.w3.org/2000/svg" xmlns:xlink="http://www.w3.org/1999/xlink" x="0px" y="0px"
	 viewBox="0 0 309.5 17.671" style="enable-background:new 0 0 309.5 17.671;" xml:space="preserve">
<g>
	<g>
		
			<line style="fill:none;stroke:#CDCCCC;stroke-width:2;stroke-linecap:round;stroke-miterlimit:10;" x1="1.333" y1="4.458" x2="308.5" y2="4.458"/>
		
			<line style="fill:none;stroke:#CDCCCC;stroke-width:2;stroke-linecap:round;stroke-miterlimit:10;" x1="308.5" y1="13.458" x2="18.333" y2="13.458"/>
		<path style="fill:none;stroke:#CDCCCC;stroke-width:2;stroke-linecap:round;stroke-miterlimit:10;" d="M52.71,4.117
			c-2.236-1.745-4.665-2.992-7.21-2.992c-7.5,0-13.535,10.218-16.5,13.333c-4.937,5.187-10.687-0.375-10.687-0.375
			S9.333,4.458,1,4.458"/>
		<path style="fill:none;stroke:#CDCCCC;stroke-width:2;stroke-linecap:round;stroke-miterlimit:10;" d="M97.216,4.449
			C94.825,2.469,92.199,1,89.438,1c-7.5,0-13.459,10.292-16.5,13.333c-3.699,3.699-7.713,1.638-9.218,0.625l-1.532-1.062"/>
		<path style="fill:none;stroke:#CDCCCC;stroke-width:2;stroke-linecap:round;stroke-miterlimit:10;" d="M107.292,14.583
			c0,0,5.667,4.542,10.333-0.125c3.041-3.041,9-13.333,16.5-13.333c2.66,0,5.194,1.363,7.513,3.233"/>
		<path style="fill:none;stroke:#CDCCCC;stroke-width:2;stroke-linecap:round;stroke-miterlimit:10;" d="M185.973,4.56
			c-2.426-2.036-5.098-3.56-7.91-3.56c-7.5,0-13.459,10.292-16.5,13.333c-3.699,3.699-7.713,1.638-9.218,0.625l-0.72-0.5"/>
		<path style="fill:none;stroke:#CDCCCC;stroke-width:2;stroke-linecap:round;stroke-miterlimit:10;" d="M195.563,14.333"/>
		<path style="fill:none;stroke:#CDCCCC;stroke-width:2;stroke-linecap:round;stroke-miterlimit:10;" d="M228.912,3.478
			c-1.994-1.403-4.128-2.353-6.349-2.353c-7.5,0-13.459,10.292-16.5,13.333c-4.667,4.667-9.833,0.167-9.833,0.167"/>
		<path style="fill:none;stroke:#CDCCCC;stroke-width:2;stroke-linecap:round;stroke-miterlimit:10;" d="M267.412,3.478
			c-1.994-1.403-4.128-2.353-6.349-2.353c-7.5,0-13.459,10.292-16.5,13.333c-4.667,4.667-9.833,0.167-9.833,0.167"/>
		<path style="fill:none;stroke:#CDCCCC;stroke-width:2;stroke-linecap:round;stroke-miterlimit:10;" d="M304.412,3.478
			c-1.994-1.403-4.128-2.353-6.349-2.353c-7.5,0-13.459,10.292-16.5,13.333c-4.667,4.667-9.833,0.167-9.833,0.167"/>
	</g>
</g>
<g>
</g>
<g>
</g>
<g>
</g>
<g>
</g>
<g>
</g>
<g>
</g>
</svg>
