<?xml version="1.0" encoding="iso-8859-1"?>
<!-- Generator: Adobe Illustrator 19.1.0, SVG Export Plug-In . SVG Version: 6.00 Build 0)  -->
<svg version="1.1" id="Layer_1" xmlns="http://www.w3.org/2000/svg" xmlns:xlink="http://www.w3.org/1999/xlink" x="0px" y="0px"
	 viewBox="0 0 309.5 17.671" style="enable-background:new 0 0 309.5 17.671;" xml:space="preserve">
<g>
	<g>
		
			<line style="fill:none;stroke:#CDCCCC;stroke-width:2;stroke-linecap:round;stroke-miterlimit:10;" x1="308.167" y1="4.458" x2="1" y2="4.458"/>
		
			<line style="fill:none;stroke:#CDCCCC;stroke-width:2;stroke-linecap:round;stroke-miterlimit:10;" x1="1" y1="13.458" x2="291.167" y2="13.458"/>
		<path style="fill:none;stroke:#CDCCCC;stroke-width:2;stroke-linecap:round;stroke-miterlimit:10;" d="M256.79,4.117
			c2.236-1.745,4.665-2.992,7.21-2.992c7.5,0,13.535,10.218,16.5,13.333c4.938,5.188,10.688-0.375,10.688-0.375
			s8.979-9.625,17.312-9.625"/>
		<path style="fill:none;stroke:#CDCCCC;stroke-width:2;stroke-linecap:round;stroke-miterlimit:10;" d="M212.284,4.449
			C214.675,2.469,217.301,1,220.062,1c7.5,0,13.459,10.292,16.5,13.333c3.699,3.699,7.713,1.638,9.218,0.625l1.532-1.062"/>
		<path style="fill:none;stroke:#CDCCCC;stroke-width:2;stroke-linecap:round;stroke-miterlimit:10;" d="M202.208,14.583
			c0,0-5.667,4.542-10.333-0.125c-3.041-3.041-9-13.333-16.5-13.333c-2.66,0-5.194,1.363-7.513,3.233"/>
		<path style="fill:none;stroke:#CDCCCC;stroke-width:2;stroke-linecap:round;stroke-miterlimit:10;" d="M123.527,4.56
			c2.426-2.036,5.098-3.56,7.91-3.56c7.5,0,13.459,10.292,16.5,13.333c3.699,3.699,7.713,1.638,9.218,0.625l0.72-0.5"/>
		<path style="fill:none;stroke:#CDCCCC;stroke-width:2;stroke-linecap:round;stroke-miterlimit:10;" d="M113.938,14.333"/>
		<path style="fill:none;stroke:#CDCCCC;stroke-width:2;stroke-linecap:round;stroke-miterlimit:10;" d="M80.588,3.478
			c1.994-1.403,4.128-2.353,6.349-2.353c7.5,0,13.459,10.292,16.5,13.333c4.667,4.667,9.833,0.167,9.833,0.167"/>
		<path style="fill:none;stroke:#CDCCCC;stroke-width:2;stroke-linecap:round;stroke-miterlimit:10;" d="M42.088,3.478
			c1.994-1.403,4.128-2.353,6.349-2.353c7.5,0,13.459,10.292,16.5,13.333c4.667,4.667,9.833,0.167,9.833,0.167"/>
		<path style="fill:none;stroke:#CDCCCC;stroke-width:2;stroke-linecap:round;stroke-miterlimit:10;" d="M5.088,3.478
			c1.994-1.403,4.128-2.353,6.349-2.353c7.5,0,13.459,10.292,16.5,13.333c4.667,4.667,9.833,0.167,9.833,0.167"/>
	</g>
</g>
<g>
</g>
<g>
</g>
<g>
</g>
<g>
</g>
<g>
</g>
<g>
</g>
</svg>
