<?xml version="1.0" encoding="utf-8"?>
<!-- Generator: Adobe Illustrator 18.1.1, SVG Export Plug-In . SVG Version: 6.00 Build 0)  -->
<svg version="1.1" id="Layer_1" xmlns="http://www.w3.org/2000/svg" xmlns:xlink="http://www.w3.org/1999/xlink" x="0px" y="0px"
	 viewBox="0 0 158.8 229.8" enable-background="new 0 0 158.8 229.8" xml:space="preserve">
<g>
	<g>
		<path fill="#53AADF" d="M79.4,141.3c0,0-13.4-8.5-37.9-8.5c-22.7,0-30.3-5-32.5-5c-3.7,0-6.1,2.5-4.3,6s54,74.1,70.4,90.5
			c0,0,1.7,1.7,4.3,1.7h0.5c1.9,0,3.3-0.7,4.3-1.7c14.4-14.4,68.3-87.3,70.4-90.5c1.7-2.6,1.2-6.2-4.3-6c-2.2,0-9.8,5-32.5,5
			C93.3,132.8,79.4,141.3,79.4,141.3z"/>
		<path fill="none" stroke="#FFFFFF" stroke-width="4" stroke-miterlimit="10" d="M79.4,141.3c0,0-13.4-8.5-37.9-8.5
			c-22.7,0-30.3-5-32.5-5c-3.7,0-6.1,2.5-4.3,6s54,74.1,70.4,90.5c0,0,1.7,1.7,4.3,1.7h0.5c1.9,0,3.3-0.7,4.3-1.7
			c14.4-14.4,68.3-87.3,70.4-90.5c1.7-2.6,1.2-6.2-4.3-6c-2.2,0-9.8,5-32.5,5C93.3,132.8,79.4,141.3,79.4,141.3z"/>
	</g>
	<path fill="none" stroke="#FFFFFF" stroke-width="4" stroke-miterlimit="10" d="M118.4,154.3H41.7c-2.5,0-4.5-2-4.5-4.5v-75
		c0-2.5,2-4.5,4.5-4.5h76.7c2.5,0,4.5,2,4.5,4.5v75C122.9,152.3,120.8,154.3,118.4,154.3z"/>
	<path fill="none" stroke="#FFFFFF" stroke-width="4" stroke-miterlimit="10" d="M120,70.2H40.1c-1.6,0-2.9-1.3-2.9-2.9v-9.5
		c0-1.6,1.3-2.9,2.9-2.9H120c1.6,0,2.9,1.3,2.9,2.9v9.5C122.9,68.9,121.6,70.2,120,70.2z"/>
	
		<ellipse transform="matrix(0.7192 -0.6948 0.6948 0.7192 -5.072 75.2859)" fill="none" stroke="#FFFFFF" stroke-width="4" stroke-miterlimit="10" cx="90.6" cy="43.9" rx="12.3" ry="7.8"/>
	
		<ellipse transform="matrix(-0.7192 -0.6948 0.6948 -0.7192 87.1076 121.8163)" fill="none" stroke="#FFFFFF" stroke-width="4" stroke-miterlimit="10" cx="68.2" cy="43.3" rx="13.2" ry="8.4"/>
	<g>
		<path fill="none" stroke="#FFFFFF" stroke-width="4" stroke-linecap="round" stroke-miterlimit="10" d="M95,80.6
			c-4.6-17-13.1-25.1-13.1-25.1"/>
		<path fill="none" stroke="#FFFFFF" stroke-width="4" stroke-linecap="round" stroke-miterlimit="10" d="M104.5,102.3
			c-0.4-1.5-5.3-5.9-9.5-21.7"/>
	</g>
	<g>
		<path fill="none" stroke="#FFFFFF" stroke-width="4" stroke-linecap="round" stroke-miterlimit="10" d="M64,80.6
			c4.6-17,13.1-25.1,13.1-25.1"/>
		<path fill="none" stroke="#FFFFFF" stroke-width="4" stroke-linecap="round" stroke-miterlimit="10" d="M54.5,102.3
			c0.4-1.5,5.3-5.9,9.5-21.7"/>
	</g>
	<line fill="none" stroke="#FFFFFF" stroke-width="4" stroke-miterlimit="10" x1="83.4" y1="54.6" x2="83.4" y2="154.1"/>
	<line fill="none" stroke="#FFFFFF" stroke-width="4" stroke-miterlimit="10" x1="75.3" y1="54.6" x2="75.3" y2="154.1"/>
</g>
</svg>
