<?xml version="1.0" encoding="utf-8"?>
<!-- Generator: Adobe Illustrator 18.1.1, SVG Export Plug-In . SVG Version: 6.00 Build 0)  -->
<svg version="1.1" id="Layer_1" xmlns="http://www.w3.org/2000/svg" xmlns:xlink="http://www.w3.org/1999/xlink" x="0px" y="0px"
	 viewBox="0 0 158.8 229.8" enable-background="new 0 0 158.8 229.8" xml:space="preserve">
<g>
	<g>
		<path fill="#99B86F" d="M78.9,144.6c0,0-12.9-8.2-36.4-8.2c-21.8,0-29.1-4.8-31.2-4.8c-3.5,0-5.8,2.4-4.1,5.8
			c1.7,3.4,51.9,71.2,67.6,87c0,0,1.6,1.6,4.1,1.6h0.5c1.9,0,3.2-0.7,4.1-1.6c13.8-13.8,65.6-83.9,67.6-87c1.6-2.5,1.2-6-4.1-5.8
			c-2.1,0-9.4,4.8-31.2,4.8C92.3,136.4,78.9,144.6,78.9,144.6z"/>
		<path fill="none" stroke="#FFFFFF" stroke-width="3" stroke-miterlimit="10" d="M78.9,144.6c0,0-12.9-8.2-36.4-8.2
			c-21.8,0-29.1-4.8-31.2-4.8c-3.5,0-5.8,2.4-4.1,5.8c1.7,3.4,51.9,71.2,67.6,87c0,0,1.6,1.6,4.1,1.6h0.5c1.9,0,3.2-0.7,4.1-1.6
			c13.8-13.8,65.6-83.9,67.6-87c1.6-2.5,1.2-6-4.1-5.8c-2.1,0-9.4,4.8-31.2,4.8C92.3,136.4,78.9,144.6,78.9,144.6z"/>
	</g>
	<path fill="none" stroke="#FFFFFF" stroke-width="3" stroke-miterlimit="10" d="M58.1,204.4l5.3-80.5c0,0-0.3-5.2-3.8-8.8
		c-6-6-6.3-21-6.3-34.4c0,0-3.7-21.3-3.7-28s6.6-4.9,7-1.9c0.4,3,3.7,22.7,4.1,24.2s4.3,1.8,4-1c0,0-3.6-23.4-3.6-30.4
		s8.2-6.6,8.7-1.4c0.4,3.2,2.7,25.6,3.3,28.3c0.5,2.6,4.7,2.7,4.7-0.7c0,0-2.5-29.6-2.9-36c-0.3-4.8,7.8-4.4,7.8-1
		c0.4,4.5,3.4,33.4,3.8,37c0.4,3.6,3.7,3,3.8,0.1c0.1-2.9-0.5-26.9-0.5-32.2s8.4-5.2,8.4,0.4c0,4,2.3,45.2,2.5,48.1
		c0.1,2.9,2.5,5.5,4.5,2.3c0.7-1.5,2.2-11.8,10.4-17.2c2.9-1.6,10-1.1,7.4,4.8c0,0-5.8,9.8-7.6,15.5c-1.8,5.8-4.4,10.6-14.2,21.6
		c-7.6,9.9-1.4,91.4-1.4,91.4"/>
</g>
</svg>
