<?xml version="1.0" encoding="utf-8"?>
<!-- Generator: Adobe Illustrator 18.1.1, SVG Export Plug-In . SVG Version: 6.00 Build 0)  -->
<svg version="1.1" id="Layer_1" xmlns="http://www.w3.org/2000/svg" xmlns:xlink="http://www.w3.org/1999/xlink" x="0px" y="0px"
	 viewBox="0 0 158.8 229.8" enable-background="new 0 0 158.8 229.8" xml:space="preserve">
<g>
	<g>
		<g>
			<path fill="#D87341" d="M78.9,141.3c0,0-13.4-8.5-37.9-8.5c-22.7,0-30.3-5-32.5-5c-3.7,0-6.1,2.5-4.3,6s54,74.1,70.4,90.5
				c0,0,1.7,1.7,4.3,1.7h0.5c1.9,0,3.3-0.7,4.3-1.7c14.4-14.4,68.3-87.3,70.4-90.5c1.7-2.6,1.2-6.2-4.3-6c-2.2,0-9.8,5-32.5,5
				C92.8,132.8,78.9,141.3,78.9,141.3z"/>
			<path fill="none" stroke="#FFFFFF" stroke-width="4" stroke-miterlimit="10" d="M78.9,141.3c0,0-13.4-8.5-37.9-8.5
				c-22.7,0-30.3-5-32.5-5c-3.7,0-6.1,2.5-4.3,6s54,74.1,70.4,90.5c0,0,1.7,1.7,4.3,1.7h0.5c1.9,0,3.3-0.7,4.3-1.7
				c14.4-14.4,68.3-87.3,70.4-90.5c1.7-2.6,1.2-6.2-4.3-6c-2.2,0-9.8,5-32.5,5C92.8,132.8,78.9,141.3,78.9,141.3z"/>
		</g>
	</g>
	<g>
		<path fill="none" stroke="#FFFFFF" stroke-width="4" stroke-miterlimit="10" d="M76.9,141.6H63.5c-0.5,0-0.9,0.4-0.9,0.9v1.7
			c0,0.6-0.5,1-1,1h-5c-0.6,0-1-0.5-1-1v-1.7c0-0.6-0.5-1-1-1h-5.1c-0.6,0-1.1,0.5-1.1,1.1v6.9c0,0.6,0.5,1.1,1.1,1.1h1.1
			c0.5,0,1,0.4,1,1v5.4c0,0.7-0.6,1.3-1.3,1.3h-0.9c-0.6,0-1.1,0.5-1.1,1.1v9.3c0,0.7,0.5,1.2,1.2,1.2h5c0.7,0,1.2-0.5,1.2-1.2v-2.3
			c0-0.5,0.4-0.9,0.9-0.9h5.1c0.5,0,1,0.4,1,1v2.5c0,1.1,0.4,1.7,1.7,1.7c0.9,0,12.6,0,12.6,0l-0.2,11.1c0,2.3,6.6,2.5,6.6,2.5h0.1
			c0,0,6.6-0.2,6.6-2.5c0-2.3-0.2-123.8-0.2-127c0-3.1,1.6-5.1,8.3-8.3c21.3-11.8,13.6-34.3,1.1-38.8c0,0-7.8-2.9-14.7-2.9H82
			c-6.8,0-14.7,2.9-14.7,2.9c-12.5,4.5-19.3,27,2,38.8c6.7,3.2,8.3,5.2,8.3,8.3C77.6,57.8,76.9,141.6,76.9,141.6z"/>
		<path fill="none" stroke="#FFFFFF" stroke-width="4" stroke-miterlimit="10" d="M84.6,18.7c2-2.1,4.8-3.3,7.9-3.3
			c6.1,0,11,4.9,11,11s-4.9,11-11,11c-3.2,0-6.1-1.4-8.1-3.6c0,0-0.2-0.4-0.7-0.4c-0.5,0-0.7,0.4-0.7,0.4c-2,2.2-4.9,3.6-8.1,3.6
			c-6.1,0-11-4.9-11-11s4.9-11,11-11c3.1,0,5.8,1.3,7.8,3.3c0,0,0.5,0.4,1,0.4C84.2,19.1,84.6,18.7,84.6,18.7z"/>
	</g>
</g>
</svg>
