<?xml version="1.0" encoding="iso-8859-1"?>
<!-- Generator: Adobe Illustrator 19.1.0, SVG Export Plug-In . SVG Version: 6.00 Build 0)  -->
<svg version="1.1" id="Layer_1" xmlns="http://www.w3.org/2000/svg" xmlns:xlink="http://www.w3.org/1999/xlink" x="0px" y="0px"
	 viewBox="0 0 82.028 104.076" style="enable-background:new 0 0 82.028 104.076;" xml:space="preserve">
<g>
	<path style="fill:none;stroke:#FFFFFF;stroke-width:3;stroke-miterlimit:10;" d="M38.14,40.087c0-2.867,0-10.374,0-10.374"/>
	<path style="fill:none;stroke:#FFFFFF;stroke-width:3;stroke-miterlimit:10;" d="M43.14,29.713c0,0,0,7.508,0,10.374"/>
	<path style="fill:none;stroke:#FFFFFF;stroke-width:3;stroke-miterlimit:10;" d="M42.011,29.474h-2.903
		c-1.577,0-2.868-1.291-2.868-2.868V4.368c0-1.577,1.291-2.868,2.868-2.868h2.903c1.577,0,2.868,1.291,2.868,2.868v22.238
		C44.879,28.183,43.588,29.474,42.011,29.474z"/>
	<path style="opacity:0.5;fill:#B22025;" d="M40.807,75.368c0,0-19-2.125-16.75-21.437c-11.855,0-18.85-2.605-20-2.605
		c-1.917,0-3.167,1.292-2.25,3.125c0.917,1.833,28.187,38.687,36.75,47.25c0,0,0.875,0.875,2.25,0.875h0.276
		c1.016,0,1.742-0.367,2.25-0.875c7.508-7.508,35.646-45.567,36.75-47.25c0.875-1.333,0.625-3.25-2.25-3.125
		c-1.15,0-9.421,2.542-21.276,2.542C59.932,71.993,40.807,75.368,40.807,75.368z"/>
	<path style="fill:none;stroke:#FFFFFF;stroke-width:3;stroke-miterlimit:10;" d="M40.807,58.368c0,0-7-4.437-19.77-4.437
		c-11.855,0-15.83-2.605-16.98-2.605c-1.917,0-3.167,1.292-2.25,3.125c0.917,1.833,28.187,38.687,36.75,47.25
		c0,0,0.875,0.875,2.25,0.875h0.276c1.016,0,1.742-0.367,2.25-0.875c7.508-7.508,35.646-45.567,36.75-47.25
		c0.875-1.333,0.625-3.25-2.25-3.125c-1.15,0-5.125,2.605-16.98,2.605C48.083,53.931,40.807,58.368,40.807,58.368z"/>
	<circle style="fill:none;stroke:#FFFFFF;stroke-width:3;stroke-miterlimit:10;" cx="40.474" cy="57.701" r="16.5"/>
	<path style="fill:none;stroke:#FFFFFF;stroke-width:9;stroke-miterlimit:10;" d="M56.476,54.109
		c-10.042,0.828-15.669,4.259-15.669,4.259s-5.887-3.731-16.712-4.35"/>
</g>
<g>
</g>
<g>
</g>
<g>
</g>
<g>
</g>
<g>
</g>
<g>
</g>
</svg>
