<?xml version="1.0" encoding="utf-8"?>
<!-- Generator: Adobe Illustrator 19.1.0, SVG Export Plug-In . SVG Version: 6.00 Build 0)  -->
<svg version="1.1" id="Layer_1" xmlns="http://www.w3.org/2000/svg" xmlns:xlink="http://www.w3.org/1999/xlink" x="0px" y="0px"
	 viewBox="0 0 686.2 48" style="enable-background:new 0 0 686.2 48;" xml:space="preserve">
<style type="text/css">
	.st0{fill:none;stroke:#BCBEC0;stroke-width:2;stroke-linecap:round;stroke-miterlimit:10;}
</style>
<g>
	<path class="st0" d="M342.6,27.2c0,0-1.5-0.9-4.2-0.9c-2.5,0-3.4-0.6-3.6-0.6c-0.4,0-0.7,0.3-0.5,0.7c0.2,0.4,6,8.2,7.8,10
		c0,0,0.2,0.2,0.5,0.2h0.1c0.2,0,0.4-0.1,0.5-0.2c1.6-1.6,7.6-9.7,7.8-10c0.2-0.3,0.1-0.7-0.5-0.7c-0.2,0-1.1,0.6-3.6,0.6
		C344.1,26.3,342.6,27.2,342.6,27.2z"/>
	<line class="st0" x1="342.6" y1="25.8" x2="342.6" y2="11.3"/>
	<circle class="st0" cx="342.5" cy="24" r="23"/>
	<g>
		<g>
			<line class="st0" x1="1.3" y1="19.4" x2="308.5" y2="19.4"/>
			<line class="st0" x1="308.5" y1="28.4" x2="18.3" y2="28.4"/>
			<path class="st0" d="M52.7,19c-2.2-1.7-4.7-3-7.2-3C38,16.1,32,26.3,29,29.4C24.1,34.6,18.3,29,18.3,29s-9-9.6-17.3-9.6"/>
			<path class="st0" d="M97.2,19.4c-2.4-2-5-3.4-7.8-3.4c-7.5,0-13.5,10.3-16.5,13.3c-3.7,3.7-7.7,1.6-9.2,0.6l-1.5-1.1"/>
			<path class="st0" d="M107.3,29.5c0,0,5.7,4.5,10.3-0.1c3-3,9-13.3,16.5-13.3c2.7,0,5.2,1.4,7.5,3.2"/>
			<path class="st0" d="M186,19.5c-2.4-2-5.1-3.6-7.9-3.6c-7.5,0-13.5,10.3-16.5,13.3c-3.7,3.7-7.7,1.6-9.2,0.6l-0.7-0.5"/>
			<path class="st0" d="M195.6,29.3"/>
			<path class="st0" d="M228.9,18.4c-2-1.4-4.1-2.4-6.3-2.4c-7.5,0-13.5,10.3-16.5,13.3c-4.7,4.7-9.8,0.2-9.8,0.2"/>
			<path class="st0" d="M267.4,18.4c-2-1.4-4.1-2.4-6.3-2.4c-7.5,0-13.5,10.3-16.5,13.3c-4.7,4.7-9.8,0.2-9.8,0.2"/>
			<path class="st0" d="M304.4,18.4c-2-1.4-4.1-2.4-6.3-2.4c-7.5,0-13.5,10.3-16.5,13.3c-4.7,4.7-9.8,0.2-9.8,0.2"/>
		</g>
	</g>
	<g>
		<g>
			<line class="st0" x1="684.9" y1="19.4" x2="377.7" y2="19.4"/>
			<line class="st0" x1="377.7" y1="28.4" x2="667.9" y2="28.4"/>
			<path class="st0" d="M633.5,19c2.2-1.7,4.7-3,7.2-3c7.5,0,13.5,10.2,16.5,13.3c4.9,5.2,10.7-0.4,10.7-0.4s9-9.6,17.3-9.6"/>
			<path class="st0" d="M589,19.4c2.4-2,5-3.4,7.8-3.4c7.5,0,13.5,10.3,16.5,13.3c3.7,3.7,7.7,1.6,9.2,0.6l1.5-1.1"/>
			<path class="st0" d="M578.9,29.5c0,0-5.7,4.5-10.3-0.1c-3-3-9-13.3-16.5-13.3c-2.7,0-5.2,1.4-7.5,3.2"/>
			<path class="st0" d="M500.2,19.5c2.4-2,5.1-3.6,7.9-3.6c7.5,0,13.5,10.3,16.5,13.3c3.7,3.7,7.7,1.6,9.2,0.6l0.7-0.5"/>
			<path class="st0" d="M490.7,29.3"/>
			<path class="st0" d="M457.3,18.4c2-1.4,4.1-2.4,6.3-2.4c7.5,0,13.5,10.3,16.5,13.3c4.7,4.7,9.8,0.2,9.8,0.2"/>
			<path class="st0" d="M418.8,18.4c2-1.4,4.1-2.4,6.3-2.4c7.5,0,13.5,10.3,16.5,13.3c4.7,4.7,9.8,0.2,9.8,0.2"/>
			<path class="st0" d="M381.8,18.4c2-1.4,4.1-2.4,6.3-2.4c7.5,0,13.5,10.3,16.5,13.3c4.7,4.7,9.8,0.2,9.8,0.2"/>
		</g>
	</g>
</g>
</svg>
