<?xml version="1.0" encoding="utf-8"?>
<!-- Generator: Adobe Illustrator 19.0.0, SVG Export Plug-In . SVG Version: 6.00 Build 0)  -->
<svg version="1.1" id="Layer_1" xmlns="http://www.w3.org/2000/svg" xmlns:xlink="http://www.w3.org/1999/xlink" x="0px" y="0px"
	 viewBox="-675 377 48 48" style="enable-background:new -675 377 48 48;" xml:space="preserve">
<style type="text/css">
	.st0{fill:none;stroke:#1D1D1B;stroke-width:2;stroke-linecap:round;stroke-miterlimit:10;}
</style>
<g>
	<path class="st0" d="M9.2,401.1c0,0-0.9,1.5-0.9,4.2c0,2.5-0.5,3.3-0.5,3.6c0,0.4,0.3,0.7,0.7,0.5c0.4-0.2,8.1-5.9,9.9-7.7
		c0,0,0.2-0.2,0.2-0.5v-0.1c0-0.2-0.1-0.4-0.2-0.5c-1.6-1.6-9.6-7.5-9.9-7.7c-0.3-0.2-0.7-0.1-0.7,0.5c0,0.2,0.5,1.1,0.5,3.6
		C8.3,399.6,9.2,401.1,9.2,401.1z"/>
	<line class="st0" x1="7.8" y1="401.1" x2="-6.6" y2="401.1"/>
	<circle class="st0" cx="6" cy="401.2" r="22.8"/>
</g>
<g>
	<path class="st0" d="M-647.8,401.1c0,0-0.9-1.5-0.9-4.2c0-2.5-0.5-3.3-0.5-3.6c0-0.4,0.3-0.7,0.7-0.5c0.4,0.2,8.1,5.9,9.9,7.7
		c0,0,0.2,0.2,0.2,0.5v0.1c0,0.2-0.1,0.4-0.2,0.5c-1.6,1.6-9.6,7.5-9.9,7.7c-0.3,0.2-0.7,0.1-0.7-0.5c0-0.2,0.5-1.1,0.5-3.6
		C-648.7,402.6-647.8,401.1-647.8,401.1z"/>
	<line class="st0" x1="-649.3" y1="401.1" x2="-663.6" y2="401.1"/>
	<circle class="st0" cx="-651" cy="401" r="22.8"/>
</g>
<g>
	<path class="st0" d="M-647.8,401.1c0,0-0.9-1.5-0.9-4.2c0-2.5-0.5-3.3-0.5-3.6c0-0.4,0.3-0.7,0.7-0.5c0.4,0.2,8.1,5.9,9.9,7.7
		c0,0,0.2,0.2,0.2,0.5v0.1c0,0.2-0.1,0.4-0.2,0.5c-1.6,1.6-9.6,7.5-9.9,7.7c-0.3,0.2-0.7,0.1-0.7-0.5c0-0.2,0.5-1.1,0.5-3.6
		C-648.7,402.6-647.8,401.1-647.8,401.1z"/>
	<line class="st0" x1="-649.3" y1="401.1" x2="-663.6" y2="401.1"/>
	<circle class="st0" cx="-651" cy="401" r="22.8"/>
</g>
</svg>
