<?xml version="1.0" encoding="iso-8859-1"?>
<!-- Generator: Adobe Illustrator 19.1.0, SVG Export Plug-In . SVG Version: 6.00 Build 0)  -->
<svg version="1.1" id="Layer_1" xmlns="http://www.w3.org/2000/svg" xmlns:xlink="http://www.w3.org/1999/xlink" x="0px" y="0px"
	 viewBox="0 0 32.157 32.157" style="enable-background:new 0 0 32.157 32.157;" xml:space="preserve">
<g>
	<g>
		<g>
			<path style="fill:#838383;" d="M8.998,24.214L7.704,22.92c-0.565-0.565-0.565-1.485,0-2.051L21.458,7.115
				c0.565-0.565,1.485-0.565,2.051,0l1.294,1.294c0.565,0.565,0.565,1.485,0,2.051L11.049,24.214
				C10.483,24.779,9.563,24.779,8.998,24.214z M22.804,7.819c-0.177-0.177-0.465-0.177-0.642,0L8.408,21.573
				c-0.177,0.177-0.177,0.465,0,0.642l1.294,1.294c0.177,0.177,0.465,0.177,0.642,0L24.099,9.755c0.177-0.177,0.177-0.465,0-0.642
				L22.804,7.819z"/>
			
				<rect x="20.069" y="9.787" transform="matrix(0.7071 0.7071 -0.7071 0.7071 13.6425 -12.3668)" style="fill:#838383;" width="3.361" height="0.996"/>
			
				<rect x="18.925" y="10.931" transform="matrix(0.7071 0.7071 -0.7071 0.7071 14.1164 -11.2226)" style="fill:#838383;" width="3.361" height="0.996"/>
			
				<rect x="17.81" y="12.046" transform="matrix(0.7071 0.7071 -0.7071 0.7071 14.5783 -10.1076)" style="fill:#838383;" width="3.361" height="0.996"/>
			<path style="fill:#838383;" d="M4.717,27.092c-0.48-0.48-0.131-1.224,0.056-1.624c0.021-0.044,0.039-0.083,0.051-0.112
				c0.099-0.236,1.76-2.822,2.741-4.343l0.837,0.54c-0.965,1.496-2.543,3.96-2.666,4.203c-0.009,0.023-0.033,0.074-0.061,0.135
				c-0.038,0.081-0.131,0.279-0.177,0.432c0.094-0.028,0.237-0.084,0.453-0.193l0.04-0.02c0.19-0.098,2.588-1.529,4.153-2.466
				l0.512,0.855c-0.662,0.397-3.979,2.382-4.219,2.502L6.4,27.017C6.051,27.194,5.232,27.607,4.717,27.092z"/>
			<polygon style="fill:#838383;" points="7.133,25.654 6.135,24.656 5.177,26.671 			"/>
		</g>
		<path style="fill:#838383;" d="M16.079,32.157c-4.354,0-8.431-1.712-11.48-4.822c-0.322-0.328-0.316-0.854,0.011-1.176
			c0.328-0.321,0.855-0.316,1.176,0.012c2.734,2.787,6.389,4.322,10.293,4.322c7.949,0,14.415-6.466,14.415-14.415
			S24.027,1.663,16.079,1.663S1.663,8.13,1.663,16.079c0,1.86,0.349,3.671,1.038,5.381c0.171,0.426-0.035,0.911-0.461,1.082
			c-0.427,0.172-0.91-0.035-1.082-0.461C0.39,20.173,0,18.153,0,16.079C0,7.213,7.213,0,16.079,0s16.079,7.213,16.079,16.079
			S24.945,32.157,16.079,32.157z"/>
	</g>
</g>
<g>
</g>
<g>
</g>
<g>
</g>
<g>
</g>
<g>
</g>
<g>
</g>
</svg>
