<?xml version="1.0" encoding="iso-8859-1"?>
<!-- Generator: Adobe Illustrator 19.1.0, SVG Export Plug-In . SVG Version: 6.00 Build 0)  -->
<svg version="1.1" id="Layer_1" xmlns="http://www.w3.org/2000/svg" xmlns:xlink="http://www.w3.org/1999/xlink" x="0px" y="0px"
	 viewBox="0 0 34.631 32.178" style="enable-background:new 0 0 34.631 32.178;" xml:space="preserve">
<path style="fill:#838383;" d="M17.483,0h-0.335C7.693,0,0,7.693,0,17.148c0,5.413,2.601,10.57,6.946,13.784
	c0.066,0.051,1.648,1.245,4.219,1.245c2.381,0,4.717-1.581,4.717-3.186l0-7.052c0.901-0.136,1.833-0.432,2.56-0.815
	c0.102,0.057,0.201,0.12,0.306,0.17v7.596l0.001,0.096c0,1.61,2.337,3.191,4.717,3.191c2.571,0,4.153-1.195,4.206-1.236
	c4.357-3.224,6.959-8.381,6.959-13.794C34.631,7.693,26.938,0,17.483,0z M12.89,11.877c0.48,0,0.869-0.389,0.869-0.869
	c0-0.353-0.212-0.653-0.514-0.789c0.62-1.523,2.092-2.56,3.808-2.56c2.031,0,3.713,1.477,4.054,3.411
	c0.001,0.08,0.001,0.159,0.024,0.233c0.019,0.16,0.049,0.317,0.049,0.483c0,0.48-0.082,0.951-0.243,1.398
	c-0.162,0.452,0.072,0.95,0.524,1.113c0.097,0.035,0.197,0.052,0.294,0.052c0.356,0,0.69-0.221,0.818-0.575
	c0.183-0.508,0.273-1.04,0.31-1.579c1.698,0.619,3.266,2.101,3.266,3.811c0,2.738-1.641,4.127-4.878,4.127
	c-0.807,0-1.588-0.232-2.259-0.672c-0.521-0.342-0.966-0.805-1.286-1.339c-0.246-0.412-0.78-0.547-1.192-0.3
	c-0.412,0.246-0.546,0.78-0.3,1.192c0.19,0.317,0.417,0.611,0.663,0.888c-0.628,0.221-1.378,0.385-2.046,0.385
	c-5.651,0-6.09-3.277-6.09-4.281C8.763,13.728,10.615,11.877,12.89,11.877z M26.63,29.551c-0.012,0.009-1.212,0.889-3.163,0.889
	c-1.673,0-2.95-1.103-2.978-1.459l-0.001-7.168c0.259,0.035,0.52,0.057,0.785,0.057c4.205,0,6.617-2.138,6.617-5.865
	c0-2.767-2.561-5.044-5.162-5.682c-0.653-2.527-2.945-4.403-5.674-4.403c-2.721,0-5.009,1.834-5.662,4.42
	c-2.509,0.665-4.367,2.949-4.367,5.664c0,4.155,3.687,5.802,7.119,5.999v6.877l-0.001,0.105c-0.029,0.352-1.306,1.455-2.978,1.455
	c-1.951,0-3.152-0.88-3.172-0.895c-3.916-2.897-6.254-7.531-6.254-12.396c0-8.497,6.913-15.409,15.409-15.409h0.335
	c8.497,0,15.41,6.913,15.41,15.409C32.892,22.013,30.554,26.647,26.63,29.551z"/>
<g>
</g>
<g>
</g>
<g>
</g>
<g>
</g>
<g>
</g>
<g>
</g>
</svg>
