<?xml version="1.0" encoding="iso-8859-1"?>
<!-- Generator: Adobe Illustrator 19.1.0, SVG Export Plug-In . SVG Version: 6.00 Build 0)  -->
<svg version="1.1" id="Layer_1" xmlns="http://www.w3.org/2000/svg" xmlns:xlink="http://www.w3.org/1999/xlink" x="0px" y="0px"
	 viewBox="0 0 58 58" style="enable-background:new 0 0 58 58;" xml:space="preserve">
<g>
	<g>
		<path style="fill:#688248;" d="M16.229,43.673l-2.335-2.335c-1.02-1.02-1.02-2.679,0-3.699l24.808-24.808
			c1.02-1.02,2.679-1.02,3.699,0l2.335,2.335c1.02,1.02,1.02,2.679,0,3.699L19.928,43.673
			C18.908,44.692,17.249,44.692,16.229,43.673z M41.131,14.102c-0.32-0.32-0.839-0.32-1.158,0L15.164,38.91
			c-0.32,0.32-0.32,0.839,0,1.158l2.335,2.335c0.32,0.32,0.839,0.32,1.158,0l24.808-24.808c0.32-0.32,0.32-0.839,0-1.158
			L41.131,14.102z"/>
		
			<rect x="36.197" y="17.651" transform="matrix(0.7071 0.7071 -0.7071 0.7071 24.6059 -22.3052)" style="fill:#688248;" width="6.062" height="1.796"/>
		
			<rect x="34.133" y="19.715" transform="matrix(0.7071 0.7071 -0.7071 0.7071 25.4607 -20.2414)" style="fill:#688248;" width="6.062" height="1.796"/>
		
			<rect x="32.122" y="21.726" transform="matrix(0.7071 0.7071 -0.7071 0.7071 26.2937 -18.2304)" style="fill:#688248;" width="6.062" height="1.796"/>
		<path style="fill:#688248;" d="M8.508,48.863c-0.866-0.866-0.236-2.209,0.102-2.93c0.038-0.08,0.07-0.149,0.092-0.202
			c0.178-0.426,3.174-5.091,4.943-7.833l1.51,0.974c-1.741,2.698-4.587,7.142-4.809,7.581c-0.016,0.041-0.059,0.134-0.11,0.243
			C10.167,46.842,10,47.2,9.916,47.474c0.169-0.05,0.427-0.151,0.818-0.349l0.072-0.036c0.343-0.177,4.667-2.757,7.49-4.448
			l0.923,1.541c-1.195,0.715-7.178,4.297-7.61,4.513l-0.065,0.033C10.914,49.047,9.437,49.792,8.508,48.863z"/>
		<polygon style="fill:#688248;" points="12.865,46.27 11.066,44.471 9.337,48.105 		"/>
	</g>
	<path style="fill:none;stroke:#688248;stroke-width:3;stroke-linecap:round;stroke-miterlimit:10;" d="M3.48,39.266
		C2.203,36.094,1.5,32.629,1.5,29C1.5,13.812,13.812,1.5,29,1.5S56.5,13.812,56.5,29S44.188,56.5,29,56.5
		c-7.691,0-14.644-3.157-19.635-8.246"/>
</g>
<g>
</g>
<g>
</g>
<g>
</g>
<g>
</g>
<g>
</g>
<g>
</g>
</svg>
