<?xml version="1.0" encoding="utf-8"?>
<!-- Generator: Adobe Illustrator 19.1.0, SVG Export Plug-In . SVG Version: 6.00 Build 0)  -->
<svg version="1.1" id="Layer_1" xmlns="http://www.w3.org/2000/svg" xmlns:xlink="http://www.w3.org/1999/xlink" x="0px" y="0px"
	 viewBox="0 0 82 104.5" style="enable-background:new 0 0 82 104.5;" xml:space="preserve">
<style type="text/css">
	.st0{opacity:0.5;fill:#688248;}
	.st1{fill:none;stroke:#FFFFFF;stroke-width:3;stroke-miterlimit:10;}
	.st2{fill:#FFFFFF;}
</style>
<g>
	<path class="st0" d="M6.4,52.8l34.8,44l35.5-44.8c0,0-10.6,2.4-14.2,2.5c-3.6,0.1-14.2,1.6-14.2,1.6l-1.5,8.5c0,0-3.4,14.2-4,14.2
		s-4.5-0.2-4.6-3.4s-2.8-13.5-2.8-13.5l-0.1-6.5l-6.3-1.4l-23-1.8"/>
	<path class="st1" d="M44.1,64.8h-5.5c-1.6,0-2.9-1.3-2.9-2.9V4.4c0-1.6,1.3-2.9,2.9-2.9h5.5c1.6,0,2.9,1.3,2.9,2.9v57.5
		C47,63.5,45.7,64.8,44.1,64.8z"/>
	<line class="st1" x1="46.7" y1="13.2" x2="36.6" y2="13.2"/>
	<line class="st1" x1="46.7" y1="18.1" x2="36.6" y2="18.1"/>
	<line class="st1" x1="46.7" y1="22.8" x2="36.6" y2="22.8"/>
	<path class="st1" d="M34.8,56.3c-3.3-1-7.9-1.9-13.8-1.9c-11.9,0-15.8-2.6-17-2.6c-1.9,0-3.2,1.3-2.2,3.1
		c0.9,1.8,28.2,38.7,36.8,47.3c0,0,0.9,0.9,2.2,0.9h0.3c1,0,1.7-0.4,2.2-0.9c7.5-7.5,35.6-45.6,36.8-47.3c0.9-1.3,0.6-3.2-2.2-3.1
		c-1.1,0-5.1,2.6-17,2.6c-5.8,0-10.4,0.9-13.8,1.9"/>
	<path class="st1" d="M7.8,83.2"/>
	<path class="st1" d="M35.7,62.2c0,0,3,14.1,3.3,14.8c0.3,0.7,0.9,3,2.1,3s1.8-2.1,2-2.8S46.8,63,46.8,63"/>
	<polyline class="st1" points="5.6,52.2 41.1,96.8 76.6,52.1 	"/>
	<polygon class="st2" points="43.2,73.3 39,73.3 41.2,79.6 	"/>
</g>
</svg>
