<?xml version="1.0" encoding="iso-8859-1"?>
<!-- Generator: Adobe Illustrator 19.1.0, SVG Export Plug-In . SVG Version: 6.00 Build 0)  -->
<svg version="1.1" id="Layer_1" xmlns="http://www.w3.org/2000/svg" xmlns:xlink="http://www.w3.org/1999/xlink" x="0px" y="0px"
	 viewBox="0 0 82.028 111.359" style="enable-background:new 0 0 82.028 111.359;" xml:space="preserve">
<g>
	<path style="opacity:0.5;fill:#688248;" d="M6.432,59.734l34.75,44l35.5-44.75c0,0-10.625,2.375-14.25,2.5
		c-3.625,0.125-14.25,1.625-14.25,1.625l-1.5,8.5c0,0-3.375,14.25-4,14.25s-4.5-0.25-4.625-3.375s-2.75-13.5-2.75-13.5l-0.125-6.5
		l-6.25-1.375l-23-1.75"/>
	<path style="fill:none;stroke:#FFFFFF;stroke-width:3;stroke-miterlimit:10;" d="M44.129,71.652h-5.515
		c-1.577,0-2.868-1.291-2.868-2.868V4.368c0-1.577,1.291-2.868,2.868-2.868h5.515c1.577,0,2.868,1.291,2.868,2.868v64.417
		C46.997,70.362,45.707,71.652,44.129,71.652z"/>
	<line style="fill:none;stroke:#FFFFFF;stroke-width:3;stroke-miterlimit:10;" x1="46.682" y1="16.318" x2="36.557" y2="16.318"/>
	<line style="fill:none;stroke:#FFFFFF;stroke-width:3;stroke-miterlimit:10;" x1="46.682" y1="21.193" x2="36.557" y2="21.193"/>
	<line style="fill:none;stroke:#FFFFFF;stroke-width:3;stroke-miterlimit:10;" x1="46.682" y1="25.943" x2="36.557" y2="25.943"/>
	<path style="fill:none;stroke:#FFFFFF;stroke-width:3;stroke-miterlimit:10;" d="M34.832,63.153
		c-3.31-1.009-7.948-1.939-13.795-1.939c-11.855,0-15.83-2.605-16.98-2.605c-1.917,0-3.167,1.292-2.25,3.125
		c0.917,1.833,28.187,38.687,36.75,47.25c0,0,0.875,0.875,2.25,0.875h0.276c1.016,0,1.742-0.367,2.25-0.875
		c7.508-7.508,35.646-45.567,36.75-47.25c0.875-1.333,0.625-3.25-2.25-3.125c-1.15,0-5.125,2.605-16.98,2.605
		c-5.758,0-10.399,0.902-13.76,1.893"/>
	<path style="fill:none;stroke:#FFFFFF;stroke-width:3;stroke-miterlimit:10;" d="M7.849,90.109"/>
	<path style="fill:none;stroke:#FFFFFF;stroke-width:3;stroke-miterlimit:10;" d="M35.724,69.068c0,0,3.048,14.14,3.333,14.833
		c0.292,0.708,0.917,3,2.083,3s1.792-2.083,2.042-2.833s3.625-14.208,3.625-14.208"/>
	<polyline style="fill:none;stroke:#FFFFFF;stroke-width:3;stroke-miterlimit:10;" points="5.557,59.109 41.057,103.734 
		76.557,58.984 	"/>
	<polygon style="fill:#FFFFFF;" points="43.224,80.193 38.974,80.193 41.224,86.526 	"/>
</g>
<g>
</g>
<g>
</g>
<g>
</g>
<g>
</g>
<g>
</g>
<g>
</g>
</svg>
