<?xml version="1.0" encoding="iso-8859-1"?>
<!-- Generator: Adobe Illustrator 19.1.0, SVG Export Plug-In . SVG Version: 6.00 Build 0)  -->
<svg version="1.1" id="Layer_1" xmlns="http://www.w3.org/2000/svg" xmlns:xlink="http://www.w3.org/1999/xlink" x="0px" y="0px"
	 viewBox="0 0 59.75 55.518" style="enable-background:new 0 0 59.75 55.518;" xml:space="preserve">
<g>
	<g>
		<path style="fill:none;stroke:#688248;stroke-width:3;stroke-linecap:round;stroke-miterlimit:10;" d="M25.902,36.671v13.164
			l-0.001,0.178c0,1.728-3.204,4.006-6.639,4.006c-3.976,0-6.364-1.838-6.364-1.838C5.983,47.064,1.5,38.849,1.5,29.587
			C1.5,14.075,14.075,1.5,29.586,1.5h0.577c15.512,0,28.086,12.575,28.086,28.086c0,9.262-4.483,17.477-11.398,22.593
			c0,0-2.388,1.838-6.364,1.838c-3.435,0-6.639-2.278-6.639-4.006l-0.001-0.178V35.979"/>
		<path style="fill:none;stroke:#688248;stroke-width:3;stroke-linecap:round;stroke-miterlimit:10;" d="M37.889,19.073
			c4.199,0.579,8.728,4.181,8.728,8.539c0,4.761-2.591,8.62-9.916,8.62c-1.742,0-3.364-0.517-4.72-1.406
			c-1.092-0.716-2.011-1.673-2.683-2.795"/>
		<path style="fill:none;stroke:#688248;stroke-width:3;stroke-linecap:round;stroke-miterlimit:10;" d="M20.908,18.98
			c0.649-4.118,4.214-7.268,8.514-7.268c4.761,0,8.62,3.859,8.62,8.62c0,1.025-0.179,2.008-0.507,2.92"/>
		<path style="fill:none;stroke:#688248;stroke-width:3;stroke-linecap:round;stroke-miterlimit:10;" d="M31.812,34.711
			c-1.389,0.959-4.026,1.786-6.185,1.786c-2.419,0-12.007-0.605-12.007-8.886c0-4.761,3.859-8.62,8.62-8.62"/>
	</g>
	<path style="fill:none;stroke:#688248;stroke-width:3;stroke-linecap:round;stroke-miterlimit:10;" d="M27.727,50.17"/>
</g>
<g>
</g>
<g>
</g>
<g>
</g>
<g>
</g>
<g>
</g>
<g>
</g>
</svg>
